<?xml version="1.0" encoding="utf-8" standalone="no"?>
<!DOCTYPE svg PUBLIC "-//W3C//DTD SVG 1.1//EN"
  "http://www.w3.org/Graphics/SVG/1.1/DTD/svg11.dtd">
<!-- Created with matplotlib (https://matplotlib.org/) -->
<svg height="360pt" version="1.1" viewBox="0 0 648 360" width="648pt" xmlns="http://www.w3.org/2000/svg" xmlns:xlink="http://www.w3.org/1999/xlink">
 <defs>
  <style type="text/css">
*{stroke-linecap:butt;stroke-linejoin:round;}
  </style>
 </defs>
 <g id="figure_1">
  <g id="patch_1">
   <path d="M 0 360 
L 648 360 
L 648 0 
L 0 0 
z
" style="fill:#ffffff;"/>
  </g>
  <g id="axes_1">
   <g id="patch_2">
    <path d="M 108.815 290.856875 
L 628.56 290.856875 
L 628.56 19.44 
L 108.815 19.44 
z
" style="fill:#ffffff;"/>
   </g>
   <g id="matplotlib.axis_1">
    <g id="xtick_1">
     <g id="text_1">
      <!-- A_J -->
      <defs>
       <path d="M -0.140625 0 
L 27.34375 71.578125 
L 37.546875 71.578125 
L 66.84375 0 
L 56.0625 0 
L 47.703125 21.6875 
L 17.78125 21.6875 
L 9.90625 0 
z
M 20.515625 29.390625 
L 44.78125 29.390625 
L 37.3125 49.21875 
Q 33.890625 58.25 32.234375 64.0625 
Q 30.859375 57.171875 28.375 50.390625 
z
" id="ArialMT-65"/>
       <path d="M -1.515625 -19.875 
L -1.515625 -13.53125 
L 56.734375 -13.53125 
L 56.734375 -19.875 
z
" id="ArialMT-95"/>
       <path d="M 2.875 20.3125 
L 11.421875 21.484375 
Q 11.765625 13.28125 14.5 10.25 
Q 17.234375 7.234375 22.078125 7.234375 
Q 25.640625 7.234375 28.21875 8.859375 
Q 30.8125 10.5 31.78125 13.296875 
Q 32.765625 16.109375 32.765625 22.265625 
L 32.765625 71.578125 
L 42.234375 71.578125 
L 42.234375 22.796875 
Q 42.234375 13.8125 40.0625 8.875 
Q 37.890625 3.953125 33.171875 1.359375 
Q 28.46875 -1.21875 22.125 -1.21875 
Q 12.703125 -1.21875 7.6875 4.203125 
Q 2.6875 9.625 2.875 20.3125 
z
" id="ArialMT-74"/>
      </defs>
      <g style="fill:#262626;" transform="translate(150.205151 331.788437)rotate(-90)scale(0.165 -0.165)">
       <use xlink:href="#ArialMT-65"/>
       <use x="66.699219" xlink:href="#ArialMT-95"/>
       <use x="122.314453" xlink:href="#ArialMT-74"/>
      </g>
     </g>
    </g>
    <g id="xtick_2">
     <g id="text_2">
      <!-- AKR_J -->
      <defs>
       <path d="M 7.328125 0 
L 7.328125 71.578125 
L 16.796875 71.578125 
L 16.796875 36.078125 
L 52.34375 71.578125 
L 65.1875 71.578125 
L 35.15625 42.578125 
L 66.5 0 
L 54 0 
L 28.515625 36.234375 
L 16.796875 24.8125 
L 16.796875 0 
z
" id="ArialMT-75"/>
       <path d="M 7.859375 0 
L 7.859375 71.578125 
L 39.59375 71.578125 
Q 49.171875 71.578125 54.140625 69.640625 
Q 59.125 67.71875 62.109375 62.828125 
Q 65.09375 57.953125 65.09375 52.046875 
Q 65.09375 44.4375 60.15625 39.203125 
Q 55.21875 33.984375 44.921875 32.5625 
Q 48.6875 30.765625 50.640625 29 
Q 54.78125 25.203125 58.5 19.484375 
L 70.953125 0 
L 59.03125 0 
L 49.5625 14.890625 
Q 45.40625 21.34375 42.71875 24.75 
Q 40.046875 28.171875 37.921875 29.53125 
Q 35.796875 30.90625 33.59375 31.453125 
Q 31.984375 31.78125 28.328125 31.78125 
L 17.328125 31.78125 
L 17.328125 0 
z
M 17.328125 39.984375 
L 37.703125 39.984375 
Q 44.1875 39.984375 47.84375 41.328125 
Q 51.515625 42.671875 53.421875 45.625 
Q 55.328125 48.578125 55.328125 52.046875 
Q 55.328125 57.125 51.640625 60.390625 
Q 47.953125 63.671875 39.984375 63.671875 
L 17.328125 63.671875 
z
" id="ArialMT-82"/>
      </defs>
      <g style="fill:#262626;" transform="translate(224.454436 354.710547)rotate(-90)scale(0.165 -0.165)">
       <use xlink:href="#ArialMT-65"/>
       <use x="66.699219" xlink:href="#ArialMT-75"/>
       <use x="133.398438" xlink:href="#ArialMT-82"/>
       <use x="205.615234" xlink:href="#ArialMT-95"/>
       <use x="261.230469" xlink:href="#ArialMT-74"/>
      </g>
     </g>
    </g>
    <g id="xtick_3">
     <g id="text_3">
      <!-- BALB_CJ -->
      <defs>
       <path d="M 7.328125 0 
L 7.328125 71.578125 
L 34.1875 71.578125 
Q 42.390625 71.578125 47.34375 69.40625 
Q 52.296875 67.234375 55.09375 62.71875 
Q 57.90625 58.203125 57.90625 53.265625 
Q 57.90625 48.6875 55.421875 44.625 
Q 52.9375 40.578125 47.90625 38.09375 
Q 54.390625 36.1875 57.875 31.59375 
Q 61.375 27 61.375 20.75 
Q 61.375 15.71875 59.25 11.390625 
Q 57.125 7.078125 54 4.734375 
Q 50.875 2.390625 46.15625 1.1875 
Q 41.453125 0 34.625 0 
z
M 16.796875 41.5 
L 32.28125 41.5 
Q 38.578125 41.5 41.3125 42.328125 
Q 44.921875 43.40625 46.75 45.890625 
Q 48.578125 48.390625 48.578125 52.15625 
Q 48.578125 55.71875 46.875 58.421875 
Q 45.171875 61.140625 41.984375 62.140625 
Q 38.8125 63.140625 31.109375 63.140625 
L 16.796875 63.140625 
z
M 16.796875 8.453125 
L 34.625 8.453125 
Q 39.203125 8.453125 41.0625 8.796875 
Q 44.34375 9.375 46.53125 10.734375 
Q 48.734375 12.109375 50.140625 14.71875 
Q 51.5625 17.328125 51.5625 20.75 
Q 51.5625 24.75 49.515625 27.703125 
Q 47.46875 30.671875 43.828125 31.859375 
Q 40.1875 33.0625 33.34375 33.0625 
L 16.796875 33.0625 
z
" id="ArialMT-66"/>
       <path d="M 7.328125 0 
L 7.328125 71.578125 
L 16.796875 71.578125 
L 16.796875 8.453125 
L 52.046875 8.453125 
L 52.046875 0 
z
" id="ArialMT-76"/>
       <path d="M 58.796875 25.09375 
L 68.265625 22.703125 
Q 65.28125 11.03125 57.546875 4.90625 
Q 49.8125 -1.21875 38.625 -1.21875 
Q 27.046875 -1.21875 19.796875 3.484375 
Q 12.546875 8.203125 8.765625 17.140625 
Q 4.984375 26.078125 4.984375 36.328125 
Q 4.984375 47.515625 9.25 55.828125 
Q 13.53125 64.15625 21.40625 68.46875 
Q 29.296875 72.796875 38.765625 72.796875 
Q 49.515625 72.796875 56.828125 67.328125 
Q 64.15625 61.859375 67.046875 51.953125 
L 57.71875 49.75 
Q 55.21875 57.5625 50.484375 61.125 
Q 45.75 64.703125 38.578125 64.703125 
Q 30.328125 64.703125 24.78125 60.734375 
Q 19.234375 56.78125 16.984375 50.109375 
Q 14.75 43.453125 14.75 36.375 
Q 14.75 27.25 17.40625 20.4375 
Q 20.0625 13.625 25.671875 10.25 
Q 31.296875 6.890625 37.84375 6.890625 
Q 45.796875 6.890625 51.3125 11.46875 
Q 56.84375 16.0625 58.796875 25.09375 
z
" id="ArialMT-67"/>
      </defs>
      <g style="fill:#262626;" transform="translate(298.804269 374.892109)rotate(-90)scale(0.165 -0.165)">
       <use xlink:href="#ArialMT-66"/>
       <use x="66.699219" xlink:href="#ArialMT-65"/>
       <use x="133.398438" xlink:href="#ArialMT-76"/>
       <use x="189.013672" xlink:href="#ArialMT-66"/>
       <use x="255.712891" xlink:href="#ArialMT-95"/>
       <use x="311.328125" xlink:href="#ArialMT-67"/>
       <use x="383.544922" xlink:href="#ArialMT-74"/>
      </g>
     </g>
    </g>
    <g id="xtick_4">
     <g id="text_4">
      <!-- CBA_J -->
      <g style="fill:#262626;" transform="translate(373.053555 354.710547)rotate(-90)scale(0.165 -0.165)">
       <use xlink:href="#ArialMT-67"/>
       <use x="72.216797" xlink:href="#ArialMT-66"/>
       <use x="138.916016" xlink:href="#ArialMT-65"/>
       <use x="205.615234" xlink:href="#ArialMT-95"/>
       <use x="261.230469" xlink:href="#ArialMT-74"/>
      </g>
     </g>
    </g>
    <g id="xtick_5">
     <g id="text_5">
      <!-- C3H_HeJ -->
      <defs>
       <path d="M 4.203125 18.890625 
L 12.984375 20.0625 
Q 14.5 12.59375 18.140625 9.296875 
Q 21.78125 6 27 6 
Q 33.203125 6 37.46875 10.296875 
Q 41.75 14.59375 41.75 20.953125 
Q 41.75 27 37.796875 30.921875 
Q 33.84375 34.859375 27.734375 34.859375 
Q 25.25 34.859375 21.53125 33.890625 
L 22.515625 41.609375 
Q 23.390625 41.5 23.921875 41.5 
Q 29.546875 41.5 34.03125 44.421875 
Q 38.53125 47.359375 38.53125 53.46875 
Q 38.53125 58.296875 35.25 61.46875 
Q 31.984375 64.65625 26.8125 64.65625 
Q 21.6875 64.65625 18.265625 61.421875 
Q 14.84375 58.203125 13.875 51.765625 
L 5.078125 53.328125 
Q 6.6875 62.15625 12.390625 67.015625 
Q 18.109375 71.875 26.609375 71.875 
Q 32.46875 71.875 37.390625 69.359375 
Q 42.328125 66.84375 44.9375 62.5 
Q 47.5625 58.15625 47.5625 53.265625 
Q 47.5625 48.640625 45.0625 44.828125 
Q 42.578125 41.015625 37.703125 38.765625 
Q 44.046875 37.3125 47.5625 32.6875 
Q 51.078125 28.078125 51.078125 21.140625 
Q 51.078125 11.765625 44.234375 5.25 
Q 37.40625 -1.265625 26.953125 -1.265625 
Q 17.53125 -1.265625 11.296875 4.34375 
Q 5.078125 9.96875 4.203125 18.890625 
z
" id="ArialMT-51"/>
       <path d="M 8.015625 0 
L 8.015625 71.578125 
L 17.484375 71.578125 
L 17.484375 42.1875 
L 54.6875 42.1875 
L 54.6875 71.578125 
L 64.15625 71.578125 
L 64.15625 0 
L 54.6875 0 
L 54.6875 33.734375 
L 17.484375 33.734375 
L 17.484375 0 
z
" id="ArialMT-72"/>
       <path d="M 42.09375 16.703125 
L 51.171875 15.578125 
Q 49.03125 7.625 43.21875 3.21875 
Q 37.40625 -1.171875 28.375 -1.171875 
Q 17 -1.171875 10.328125 5.828125 
Q 3.65625 12.84375 3.65625 25.484375 
Q 3.65625 38.578125 10.390625 45.796875 
Q 17.140625 53.03125 27.875 53.03125 
Q 38.28125 53.03125 44.875 45.953125 
Q 51.46875 38.875 51.46875 26.03125 
Q 51.46875 25.25 51.421875 23.6875 
L 12.75 23.6875 
Q 13.234375 15.140625 17.578125 10.59375 
Q 21.921875 6.0625 28.421875 6.0625 
Q 33.25 6.0625 36.671875 8.59375 
Q 40.09375 11.140625 42.09375 16.703125 
z
M 13.234375 30.90625 
L 42.1875 30.90625 
Q 41.609375 37.453125 38.875 40.71875 
Q 34.671875 45.796875 27.984375 45.796875 
Q 21.921875 45.796875 17.796875 41.75 
Q 13.671875 37.703125 13.234375 30.90625 
z
" id="ArialMT-101"/>
      </defs>
      <g style="fill:#262626;" transform="translate(447.30284 374.881797)rotate(-90)scale(0.165 -0.165)">
       <use xlink:href="#ArialMT-67"/>
       <use x="72.216797" xlink:href="#ArialMT-51"/>
       <use x="127.832031" xlink:href="#ArialMT-72"/>
       <use x="200.048828" xlink:href="#ArialMT-95"/>
       <use x="255.664062" xlink:href="#ArialMT-72"/>
       <use x="327.880859" xlink:href="#ArialMT-101"/>
       <use x="383.496094" xlink:href="#ArialMT-74"/>
      </g>
     </g>
    </g>
    <g id="xtick_6">
     <g id="text_6">
      <!-- DBA_2J -->
      <defs>
       <path d="M 7.71875 0 
L 7.71875 71.578125 
L 32.375 71.578125 
Q 40.71875 71.578125 45.125 70.5625 
Q 51.265625 69.140625 55.609375 65.4375 
Q 61.28125 60.640625 64.078125 53.1875 
Q 66.890625 45.75 66.890625 36.1875 
Q 66.890625 28.03125 64.984375 21.734375 
Q 63.09375 15.4375 60.109375 11.296875 
Q 57.125 7.171875 53.578125 4.796875 
Q 50.046875 2.4375 45.046875 1.21875 
Q 40.046875 0 33.546875 0 
z
M 17.1875 8.453125 
L 32.46875 8.453125 
Q 39.546875 8.453125 43.578125 9.765625 
Q 47.609375 11.078125 50 13.484375 
Q 53.375 16.84375 55.25 22.53125 
Q 57.125 28.21875 57.125 36.328125 
Q 57.125 47.5625 53.4375 53.59375 
Q 49.75 59.625 44.484375 61.671875 
Q 40.671875 63.140625 32.234375 63.140625 
L 17.1875 63.140625 
z
" id="ArialMT-68"/>
       <path d="M 50.34375 8.453125 
L 50.34375 0 
L 3.03125 0 
Q 2.9375 3.171875 4.046875 6.109375 
Q 5.859375 10.9375 9.828125 15.625 
Q 13.8125 20.3125 21.34375 26.46875 
Q 33.015625 36.03125 37.109375 41.625 
Q 41.21875 47.21875 41.21875 52.203125 
Q 41.21875 57.421875 37.46875 61 
Q 33.734375 64.59375 27.734375 64.59375 
Q 21.390625 64.59375 17.578125 60.78125 
Q 13.765625 56.984375 13.71875 50.25 
L 4.6875 51.171875 
Q 5.609375 61.28125 11.65625 66.578125 
Q 17.71875 71.875 27.9375 71.875 
Q 38.234375 71.875 44.234375 66.15625 
Q 50.25 60.453125 50.25 52 
Q 50.25 47.703125 48.484375 43.546875 
Q 46.734375 39.40625 42.65625 34.8125 
Q 38.578125 30.21875 29.109375 22.21875 
Q 21.1875 15.578125 18.9375 13.203125 
Q 16.703125 10.84375 15.234375 8.453125 
z
" id="ArialMT-50"/>
      </defs>
      <g style="fill:#262626;" transform="translate(521.476071 363.886094)rotate(-90)scale(0.165 -0.165)">
       <use xlink:href="#ArialMT-68"/>
       <use x="72.216797" xlink:href="#ArialMT-66"/>
       <use x="138.916016" xlink:href="#ArialMT-65"/>
       <use x="205.615234" xlink:href="#ArialMT-95"/>
       <use x="261.230469" xlink:href="#ArialMT-50"/>
       <use x="316.845703" xlink:href="#ArialMT-74"/>
      </g>
     </g>
    </g>
    <g id="xtick_7">
     <g id="text_7">
      <!-- LP_J -->
      <defs>
       <path d="M 7.71875 0 
L 7.71875 71.578125 
L 34.71875 71.578125 
Q 41.84375 71.578125 45.609375 70.90625 
Q 50.875 70.015625 54.4375 67.546875 
Q 58.015625 65.09375 60.1875 60.640625 
Q 62.359375 56.203125 62.359375 50.875 
Q 62.359375 41.75 56.546875 35.421875 
Q 50.734375 29.109375 35.546875 29.109375 
L 17.1875 29.109375 
L 17.1875 0 
z
M 17.1875 37.546875 
L 35.6875 37.546875 
Q 44.875 37.546875 48.734375 40.96875 
Q 52.59375 44.390625 52.59375 50.59375 
Q 52.59375 55.078125 50.3125 58.265625 
Q 48.046875 61.46875 44.34375 62.5 
Q 41.9375 63.140625 35.5 63.140625 
L 17.1875 63.140625 
z
" id="ArialMT-80"/>
      </defs>
      <g style="fill:#262626;" transform="translate(595.700865 340.963984)rotate(-90)scale(0.165 -0.165)">
       <use xlink:href="#ArialMT-76"/>
       <use x="55.615234" xlink:href="#ArialMT-80"/>
       <use x="122.314453" xlink:href="#ArialMT-95"/>
       <use x="177.929688" xlink:href="#ArialMT-74"/>
      </g>
     </g>
    </g>
   </g>
   <g id="matplotlib.axis_2">
    <g id="ytick_1">
     <g id="text_8">
      <!-- $\mathdefault{10^{1}}$ -->
      <defs>
       <path d="M 37.25 0 
L 28.46875 0 
L 28.46875 56 
Q 25.296875 52.984375 20.140625 49.953125 
Q 14.984375 46.921875 10.890625 45.40625 
L 10.890625 53.90625 
Q 18.265625 57.375 23.78125 62.296875 
Q 29.296875 67.234375 31.59375 71.875 
L 37.25 71.875 
z
" id="ArialMT-49"/>
       <path d="M 4.15625 35.296875 
Q 4.15625 48 6.765625 55.734375 
Q 9.375 63.484375 14.515625 67.671875 
Q 19.671875 71.875 27.484375 71.875 
Q 33.25 71.875 37.59375 69.546875 
Q 41.9375 67.234375 44.765625 62.859375 
Q 47.609375 58.5 49.21875 52.21875 
Q 50.828125 45.953125 50.828125 35.296875 
Q 50.828125 22.703125 48.234375 14.96875 
Q 45.65625 7.234375 40.5 3 
Q 35.359375 -1.21875 27.484375 -1.21875 
Q 17.140625 -1.21875 11.234375 6.203125 
Q 4.15625 15.140625 4.15625 35.296875 
z
M 13.1875 35.296875 
Q 13.1875 17.671875 17.3125 11.828125 
Q 21.4375 6 27.484375 6 
Q 33.546875 6 37.671875 11.859375 
Q 41.796875 17.71875 41.796875 35.296875 
Q 41.796875 52.984375 37.671875 58.78125 
Q 33.546875 64.59375 27.390625 64.59375 
Q 21.34375 64.59375 17.71875 59.46875 
Q 13.1875 52.9375 13.1875 35.296875 
z
" id="ArialMT-48"/>
      </defs>
      <g style="fill:#262626;" transform="translate(70.41 295.698767)scale(0.165 -0.165)">
       <use transform="translate(0 0.99375)" xlink:href="#ArialMT-49"/>
       <use transform="translate(55.615234 0.99375)" xlink:href="#ArialMT-48"/>
       <use transform="translate(112.972813 70.6875)scale(0.7)" xlink:href="#ArialMT-49"/>
      </g>
     </g>
    </g>
    <g id="ytick_2">
     <g id="text_9">
      <!-- $\mathdefault{10^{2}}$ -->
      <g style="fill:#262626;" transform="translate(70.41 237.523233)scale(0.165 -0.165)">
       <use transform="translate(0 0.99375)" xlink:href="#ArialMT-49"/>
       <use transform="translate(55.615234 0.99375)" xlink:href="#ArialMT-48"/>
       <use transform="translate(112.972813 70.6875)scale(0.7)" xlink:href="#ArialMT-50"/>
      </g>
     </g>
    </g>
    <g id="ytick_3">
     <g id="text_10">
      <!-- $\mathdefault{10^{3}}$ -->
      <g style="fill:#262626;" transform="translate(70.41 179.347699)scale(0.165 -0.165)">
       <use transform="translate(0 0.99375)" xlink:href="#ArialMT-49"/>
       <use transform="translate(55.615234 0.99375)" xlink:href="#ArialMT-48"/>
       <use transform="translate(112.972813 70.6875)scale(0.7)" xlink:href="#ArialMT-51"/>
      </g>
     </g>
    </g>
    <g id="ytick_4">
     <g id="text_11">
      <!-- $\mathdefault{10^{4}}$ -->
      <defs>
       <path d="M 32.328125 0 
L 32.328125 17.140625 
L 1.265625 17.140625 
L 1.265625 25.203125 
L 33.9375 71.578125 
L 41.109375 71.578125 
L 41.109375 25.203125 
L 50.78125 25.203125 
L 50.78125 17.140625 
L 41.109375 17.140625 
L 41.109375 0 
z
M 32.328125 25.203125 
L 32.328125 57.46875 
L 9.90625 25.203125 
z
" id="ArialMT-52"/>
      </defs>
      <g style="fill:#262626;" transform="translate(70.41 121.089665)scale(0.165 -0.165)">
       <use transform="translate(0 0.201563)" xlink:href="#ArialMT-49"/>
       <use transform="translate(55.615234 0.201563)" xlink:href="#ArialMT-48"/>
       <use transform="translate(112.972813 69.895313)scale(0.7)" xlink:href="#ArialMT-52"/>
      </g>
     </g>
    </g>
    <g id="ytick_5">
     <g id="text_12">
      <!-- $\mathdefault{10^{5}}$ -->
      <defs>
       <path d="M 4.15625 18.75 
L 13.375 19.53125 
Q 14.40625 12.796875 18.140625 9.390625 
Q 21.875 6 27.15625 6 
Q 33.5 6 37.890625 10.78125 
Q 42.28125 15.578125 42.28125 23.484375 
Q 42.28125 31 38.0625 35.34375 
Q 33.84375 39.703125 27 39.703125 
Q 22.75 39.703125 19.328125 37.765625 
Q 15.921875 35.84375 13.96875 32.765625 
L 5.71875 33.84375 
L 12.640625 70.609375 
L 48.25 70.609375 
L 48.25 62.203125 
L 19.671875 62.203125 
L 15.828125 42.96875 
Q 22.265625 47.46875 29.34375 47.46875 
Q 38.71875 47.46875 45.15625 40.96875 
Q 51.609375 34.46875 51.609375 24.265625 
Q 51.609375 14.546875 45.953125 7.46875 
Q 39.0625 -1.21875 27.15625 -1.21875 
Q 17.390625 -1.21875 11.203125 4.25 
Q 5.03125 9.71875 4.15625 18.75 
z
" id="ArialMT-53"/>
      </defs>
      <g style="fill:#262626;" transform="translate(70.41 62.914131)scale(0.165 -0.165)">
       <use transform="translate(0 0.879688)" xlink:href="#ArialMT-49"/>
       <use transform="translate(55.615234 0.879688)" xlink:href="#ArialMT-48"/>
       <use transform="translate(112.972813 70.573438)scale(0.7)" xlink:href="#ArialMT-53"/>
      </g>
     </g>
    </g>
    <g id="ytick_6"/>
    <g id="ytick_7"/>
    <g id="ytick_8"/>
    <g id="ytick_9"/>
    <g id="ytick_10"/>
    <g id="ytick_11"/>
    <g id="ytick_12"/>
    <g id="ytick_13"/>
    <g id="ytick_14"/>
    <g id="ytick_15"/>
    <g id="ytick_16"/>
    <g id="ytick_17"/>
    <g id="ytick_18"/>
    <g id="ytick_19"/>
    <g id="ytick_20"/>
    <g id="ytick_21"/>
    <g id="ytick_22"/>
    <g id="ytick_23"/>
    <g id="ytick_24"/>
    <g id="ytick_25"/>
    <g id="ytick_26"/>
    <g id="ytick_27"/>
    <g id="ytick_28"/>
    <g id="ytick_29"/>
    <g id="ytick_30"/>
    <g id="ytick_31"/>
    <g id="ytick_32"/>
    <g id="ytick_33"/>
    <g id="ytick_34"/>
    <g id="ytick_35"/>
    <g id="ytick_36"/>
    <g id="ytick_37"/>
    <g id="ytick_38"/>
    <g id="ytick_39"/>
    <g id="ytick_40"/>
    <g id="ytick_41"/>
    <g id="text_13">
     <!-- Deletion Length (bp) -->
     <defs>
      <path d="M 6.390625 0 
L 6.390625 71.578125 
L 15.1875 71.578125 
L 15.1875 0 
z
" id="ArialMT-108"/>
      <path d="M 25.78125 7.859375 
L 27.046875 0.09375 
Q 23.34375 -0.6875 20.40625 -0.6875 
Q 15.625 -0.6875 12.984375 0.828125 
Q 10.359375 2.34375 9.28125 4.8125 
Q 8.203125 7.28125 8.203125 15.1875 
L 8.203125 45.015625 
L 1.765625 45.015625 
L 1.765625 51.859375 
L 8.203125 51.859375 
L 8.203125 64.703125 
L 16.9375 69.96875 
L 16.9375 51.859375 
L 25.78125 51.859375 
L 25.78125 45.015625 
L 16.9375 45.015625 
L 16.9375 14.703125 
Q 16.9375 10.9375 17.40625 9.859375 
Q 17.875 8.796875 18.921875 8.15625 
Q 19.96875 7.515625 21.921875 7.515625 
Q 23.390625 7.515625 25.78125 7.859375 
z
" id="ArialMT-116"/>
      <path d="M 6.640625 61.46875 
L 6.640625 71.578125 
L 15.4375 71.578125 
L 15.4375 61.46875 
z
M 6.640625 0 
L 6.640625 51.859375 
L 15.4375 51.859375 
L 15.4375 0 
z
" id="ArialMT-105"/>
      <path d="M 3.328125 25.921875 
Q 3.328125 40.328125 11.328125 47.265625 
Q 18.015625 53.03125 27.640625 53.03125 
Q 38.328125 53.03125 45.109375 46.015625 
Q 51.90625 39.015625 51.90625 26.65625 
Q 51.90625 16.65625 48.90625 10.90625 
Q 45.90625 5.171875 40.15625 2 
Q 34.421875 -1.171875 27.640625 -1.171875 
Q 16.75 -1.171875 10.03125 5.8125 
Q 3.328125 12.796875 3.328125 25.921875 
z
M 12.359375 25.921875 
Q 12.359375 15.96875 16.703125 11.015625 
Q 21.046875 6.0625 27.640625 6.0625 
Q 34.1875 6.0625 38.53125 11.03125 
Q 42.875 16.015625 42.875 26.21875 
Q 42.875 35.84375 38.5 40.796875 
Q 34.125 45.75 27.640625 45.75 
Q 21.046875 45.75 16.703125 40.8125 
Q 12.359375 35.890625 12.359375 25.921875 
z
" id="ArialMT-111"/>
      <path d="M 6.59375 0 
L 6.59375 51.859375 
L 14.5 51.859375 
L 14.5 44.484375 
Q 20.21875 53.03125 31 53.03125 
Q 35.6875 53.03125 39.625 51.34375 
Q 43.5625 49.65625 45.515625 46.921875 
Q 47.46875 44.1875 48.25 40.4375 
Q 48.734375 37.984375 48.734375 31.890625 
L 48.734375 0 
L 39.9375 0 
L 39.9375 31.546875 
Q 39.9375 36.921875 38.90625 39.578125 
Q 37.890625 42.234375 35.28125 43.8125 
Q 32.671875 45.40625 29.15625 45.40625 
Q 23.53125 45.40625 19.453125 41.84375 
Q 15.375 38.28125 15.375 28.328125 
L 15.375 0 
z
" id="ArialMT-110"/>
      <path id="ArialMT-32"/>
      <path d="M 4.984375 -4.296875 
L 13.53125 -5.5625 
Q 14.0625 -9.515625 16.5 -11.328125 
Q 19.78125 -13.765625 25.4375 -13.765625 
Q 31.546875 -13.765625 34.859375 -11.328125 
Q 38.1875 -8.890625 39.359375 -4.5 
Q 40.046875 -1.8125 39.984375 6.78125 
Q 34.234375 0 25.640625 0 
Q 14.9375 0 9.078125 7.71875 
Q 3.21875 15.4375 3.21875 26.21875 
Q 3.21875 33.640625 5.90625 39.90625 
Q 8.59375 46.1875 13.6875 49.609375 
Q 18.796875 53.03125 25.6875 53.03125 
Q 34.859375 53.03125 40.828125 45.609375 
L 40.828125 51.859375 
L 48.921875 51.859375 
L 48.921875 7.03125 
Q 48.921875 -5.078125 46.453125 -10.125 
Q 44 -15.1875 38.640625 -18.109375 
Q 33.296875 -21.046875 25.484375 -21.046875 
Q 16.21875 -21.046875 10.5 -16.875 
Q 4.78125 -12.703125 4.984375 -4.296875 
z
M 12.25 26.859375 
Q 12.25 16.65625 16.296875 11.96875 
Q 20.359375 7.28125 26.46875 7.28125 
Q 32.515625 7.28125 36.609375 11.9375 
Q 40.71875 16.609375 40.71875 26.5625 
Q 40.71875 36.078125 36.5 40.90625 
Q 32.28125 45.75 26.3125 45.75 
Q 20.453125 45.75 16.34375 40.984375 
Q 12.25 36.234375 12.25 26.859375 
z
" id="ArialMT-103"/>
      <path d="M 6.59375 0 
L 6.59375 71.578125 
L 15.375 71.578125 
L 15.375 45.90625 
Q 21.53125 53.03125 30.90625 53.03125 
Q 36.671875 53.03125 40.921875 50.75 
Q 45.171875 48.484375 47 44.484375 
Q 48.828125 40.484375 48.828125 32.859375 
L 48.828125 0 
L 40.046875 0 
L 40.046875 32.859375 
Q 40.046875 39.453125 37.1875 42.453125 
Q 34.328125 45.453125 29.109375 45.453125 
Q 25.203125 45.453125 21.75 43.421875 
Q 18.3125 41.40625 16.84375 37.9375 
Q 15.375 34.46875 15.375 28.375 
L 15.375 0 
z
" id="ArialMT-104"/>
      <path d="M 23.390625 -21.046875 
Q 16.109375 -11.859375 11.078125 0.4375 
Q 6.0625 12.75 6.0625 25.921875 
Q 6.0625 37.546875 9.8125 48.1875 
Q 14.203125 60.546875 23.390625 72.796875 
L 29.6875 72.796875 
Q 23.78125 62.640625 21.875 58.296875 
Q 18.890625 51.5625 17.1875 44.234375 
Q 15.09375 35.109375 15.09375 25.875 
Q 15.09375 2.390625 29.6875 -21.046875 
z
" id="ArialMT-40"/>
      <path d="M 14.703125 0 
L 6.546875 0 
L 6.546875 71.578125 
L 15.328125 71.578125 
L 15.328125 46.046875 
Q 20.90625 53.03125 29.546875 53.03125 
Q 34.328125 53.03125 38.59375 51.09375 
Q 42.875 49.171875 45.625 45.671875 
Q 48.390625 42.1875 49.953125 37.25 
Q 51.515625 32.328125 51.515625 26.703125 
Q 51.515625 13.375 44.921875 6.09375 
Q 38.328125 -1.171875 29.109375 -1.171875 
Q 19.921875 -1.171875 14.703125 6.5 
z
M 14.59375 26.3125 
Q 14.59375 17 17.140625 12.84375 
Q 21.296875 6.0625 28.375 6.0625 
Q 34.125 6.0625 38.328125 11.0625 
Q 42.53125 16.0625 42.53125 25.984375 
Q 42.53125 36.140625 38.5 40.96875 
Q 34.46875 45.796875 28.765625 45.796875 
Q 23 45.796875 18.796875 40.796875 
Q 14.59375 35.796875 14.59375 26.3125 
z
" id="ArialMT-98"/>
      <path d="M 6.59375 -19.875 
L 6.59375 51.859375 
L 14.59375 51.859375 
L 14.59375 45.125 
Q 17.4375 49.078125 21 51.046875 
Q 24.5625 53.03125 29.640625 53.03125 
Q 36.28125 53.03125 41.359375 49.609375 
Q 46.4375 46.1875 49.015625 39.953125 
Q 51.609375 33.734375 51.609375 26.3125 
Q 51.609375 18.359375 48.75 11.984375 
Q 45.90625 5.609375 40.453125 2.21875 
Q 35.015625 -1.171875 29 -1.171875 
Q 24.609375 -1.171875 21.109375 0.6875 
Q 17.625 2.546875 15.375 5.375 
L 15.375 -19.875 
z
M 14.546875 25.640625 
Q 14.546875 15.625 18.59375 10.84375 
Q 22.65625 6.0625 28.421875 6.0625 
Q 34.28125 6.0625 38.453125 11.015625 
Q 42.625 15.96875 42.625 26.375 
Q 42.625 36.28125 38.546875 41.203125 
Q 34.46875 46.140625 28.8125 46.140625 
Q 23.1875 46.140625 18.859375 40.890625 
Q 14.546875 35.640625 14.546875 25.640625 
z
" id="ArialMT-112"/>
      <path d="M 12.359375 -21.046875 
L 6.0625 -21.046875 
Q 20.65625 2.390625 20.65625 25.875 
Q 20.65625 35.0625 18.5625 44.09375 
Q 16.890625 51.421875 13.921875 58.15625 
Q 12.015625 62.546875 6.0625 72.796875 
L 12.359375 72.796875 
Q 21.53125 60.546875 25.921875 48.1875 
Q 29.6875 37.546875 29.6875 25.921875 
Q 29.6875 12.75 24.625 0.4375 
Q 19.578125 -11.859375 12.359375 -21.046875 
z
" id="ArialMT-41"/>
     </defs>
     <g style="fill:#262626;" transform="translate(62.621562 236.695469)rotate(-90)scale(0.18 -0.18)">
      <use xlink:href="#ArialMT-68"/>
      <use x="72.216797" xlink:href="#ArialMT-101"/>
      <use x="127.832031" xlink:href="#ArialMT-108"/>
      <use x="150.048828" xlink:href="#ArialMT-101"/>
      <use x="205.664062" xlink:href="#ArialMT-116"/>
      <use x="233.447266" xlink:href="#ArialMT-105"/>
      <use x="255.664062" xlink:href="#ArialMT-111"/>
      <use x="311.279297" xlink:href="#ArialMT-110"/>
      <use x="366.894531" xlink:href="#ArialMT-32"/>
      <use x="394.677734" xlink:href="#ArialMT-76"/>
      <use x="450.292969" xlink:href="#ArialMT-101"/>
      <use x="505.908203" xlink:href="#ArialMT-110"/>
      <use x="561.523438" xlink:href="#ArialMT-103"/>
      <use x="617.138672" xlink:href="#ArialMT-116"/>
      <use x="644.921875" xlink:href="#ArialMT-104"/>
      <use x="700.537109" xlink:href="#ArialMT-32"/>
      <use x="728.320312" xlink:href="#ArialMT-40"/>
      <use x="761.621094" xlink:href="#ArialMT-98"/>
      <use x="817.236328" xlink:href="#ArialMT-112"/>
      <use x="872.851562" xlink:href="#ArialMT-41"/>
     </g>
    </g>
   </g>
   <g id="PathCollection_1">
    <defs>
     <path d="M -0 6.363961 
L 3.818377 0 
L 0 -6.363961 
L -3.818377 -0 
z
" id="meb93dfd119" style="stroke:#f0f0f0;stroke-width:1.5;"/>
    </defs>
    <g clip-path="url(#p4a13a9e5d7)">
     <use style="fill:#f0f0f0;stroke:#f0f0f0;stroke-width:1.5;" x="145.939643" xlink:href="#meb93dfd119" y="276.946752"/>
     <use style="fill:#f0f0f0;stroke:#f0f0f0;stroke-width:1.5;" x="145.939643" xlink:href="#meb93dfd119" y="32.414923"/>
    </g>
   </g>
   <g id="PatchCollection_1">
    <path clip-path="url(#p4a13a9e5d7)" d="M 145.881636 274.848644 
L 145.99765 274.848644 
L 145.99765 37.812259 
L 145.881636 37.812259 
z
" style="fill:#ffffff;stroke:#ffffff;stroke-width:1.5;"/>
    <path clip-path="url(#p4a13a9e5d7)" d="M 145.823628 272.911489 
L 146.055657 272.911489 
L 146.055657 44.684894 
L 145.823628 44.684894 
z
" style="fill:#fdfdfd;stroke:#ffffff;stroke-width:1.5;"/>
    <path clip-path="url(#p4a13a9e5d7)" d="M 145.707614 269.629076 
L 146.171672 269.629076 
L 146.171672 67.241021 
L 145.707614 67.241021 
z
" style="fill:#fcfcfc;stroke:#ffffff;stroke-width:1.5;"/>
    <path clip-path="url(#p4a13a9e5d7)" d="M 145.475585 268.258385 
L 146.403701 268.258385 
L 146.403701 101.143976 
L 145.475585 101.143976 
z
" style="fill:#fafafa;stroke:#ffffff;stroke-width:1.5;"/>
    <path clip-path="url(#p4a13a9e5d7)" d="M 145.011527 264.262626 
L 146.867759 264.262626 
L 146.867759 111.166188 
L 145.011527 111.166188 
z
" style="fill:#f8f8f8;stroke:#ffffff;stroke-width:1.5;"/>
    <path clip-path="url(#p4a13a9e5d7)" d="M 144.083411 250.745804 
L 147.795875 250.745804 
L 147.795875 116.77769 
L 144.083411 116.77769 
z
" style="fill:#f7f7f7;stroke:#ffffff;stroke-width:1.5;"/>
    <path clip-path="url(#p4a13a9e5d7)" d="M 142.227179 242.239397 
L 149.652107 242.239397 
L 149.652107 121.039669 
L 142.227179 121.039669 
z
" style="fill:#f5f5f5;stroke:#ffffff;stroke-width:1.5;"/>
    <path clip-path="url(#p4a13a9e5d7)" d="M 138.514714 233.571352 
L 153.364571 233.571352 
L 153.364571 123.434779 
L 138.514714 123.434779 
z
" style="fill:#f3f3f3;stroke:#ffffff;stroke-width:1.5;"/>
    <path clip-path="url(#p4a13a9e5d7)" d="M 131.089786 223.682646 
L 160.7895 223.682646 
L 160.7895 135.240205 
L 131.089786 135.240205 
z
" style="fill:#f2f2f2;stroke:#ffffff;stroke-width:1.5;"/>
    <path clip-path="url(#p4a13a9e5d7)" d="M 116.239929 214.024832 
L 175.639357 214.024832 
L 175.639357 163.940538 
L 116.239929 163.940538 
z
" style="fill:#f0f0f0;stroke:#ffffff;stroke-width:1.5;"/>
   </g>
   <g id="PathCollection_2">
    <defs>
     <path d="M -0 6.363961 
L 3.818377 0 
L 0 -6.363961 
L -3.818377 -0 
z
" id="mbeaf17b035" style="stroke:#d9d9d9;stroke-width:1.5;"/>
    </defs>
    <g clip-path="url(#p4a13a9e5d7)">
     <use style="fill:#d9d9d9;stroke:#d9d9d9;stroke-width:1.5;" x="220.188929" xlink:href="#mbeaf17b035" y="280.562239"/>
     <use style="fill:#d9d9d9;stroke:#d9d9d9;stroke-width:1.5;" x="220.188929" xlink:href="#mbeaf17b035" y="90.230462"/>
    </g>
   </g>
   <g id="PatchCollection_2">
    <path clip-path="url(#p4a13a9e5d7)" d="M 220.072914 274.633093 
L 220.304943 274.633093 
L 220.304943 95.79856 
L 220.072914 95.79856 
z
" style="fill:#ffffff;stroke:#ffffff;stroke-width:1.5;"/>
    <path clip-path="url(#p4a13a9e5d7)" d="M 219.9569 269.834295 
L 220.420958 269.834295 
L 220.420958 102.951207 
L 219.9569 102.951207 
z
" style="fill:#fafafa;stroke:#ffffff;stroke-width:1.5;"/>
    <path clip-path="url(#p4a13a9e5d7)" d="M 219.724871 265.220437 
L 220.652987 265.220437 
L 220.652987 106.477824 
L 219.724871 106.477824 
z
" style="fill:#f5f5f5;stroke:#ffffff;stroke-width:1.5;"/>
    <path clip-path="url(#p4a13a9e5d7)" d="M 219.260812 250.629449 
L 221.117045 250.629449 
L 221.117045 111.896718 
L 219.260812 111.896718 
z
" style="fill:#f1f1f1;stroke:#ffffff;stroke-width:1.5;"/>
    <path clip-path="url(#p4a13a9e5d7)" d="M 218.332696 248.634664 
L 222.045161 248.634664 
L 222.045161 119.608009 
L 218.332696 119.608009 
z
" style="fill:#ececec;stroke:#ffffff;stroke-width:1.5;"/>
    <path clip-path="url(#p4a13a9e5d7)" d="M 216.476464 241.620731 
L 223.901393 241.620731 
L 223.901393 121.253062 
L 216.476464 121.253062 
z
" style="fill:#e7e7e7;stroke:#ffffff;stroke-width:1.5;"/>
    <path clip-path="url(#p4a13a9e5d7)" d="M 212.764 233.121512 
L 227.613857 233.121512 
L 227.613857 123.765851 
L 212.764 123.765851 
z
" style="fill:#e2e2e2;stroke:#ffffff;stroke-width:1.5;"/>
    <path clip-path="url(#p4a13a9e5d7)" d="M 205.339071 223.402907 
L 235.038786 223.402907 
L 235.038786 137.741806 
L 205.339071 137.741806 
z
" style="fill:#dedede;stroke:#ffffff;stroke-width:1.5;"/>
    <path clip-path="url(#p4a13a9e5d7)" d="M 190.489214 213.54094 
L 249.888643 213.54094 
L 249.888643 166.63671 
L 190.489214 166.63671 
z
" style="fill:#d9d9d9;stroke:#ffffff;stroke-width:1.5;"/>
   </g>
   <g id="PathCollection_3">
    <defs>
     <path d="M -0 6.363961 
L 3.818377 0 
L 0 -6.363961 
L -3.818377 -0 
z
" id="m6149fd4c57" style="stroke:#bdbdbd;stroke-width:1.5;"/>
    </defs>
    <g clip-path="url(#p4a13a9e5d7)">
     <use style="fill:#bdbdbd;stroke:#bdbdbd;stroke-width:1.5;" x="294.438214" xlink:href="#m6149fd4c57" y="276.946752"/>
     <use style="fill:#bdbdbd;stroke:#bdbdbd;stroke-width:1.5;" x="294.438214" xlink:href="#m6149fd4c57" y="32.414923"/>
    </g>
   </g>
   <g id="PatchCollection_3">
    <path clip-path="url(#p4a13a9e5d7)" d="M 294.380207 276.50326 
L 294.496222 276.50326 
L 294.496222 37.948351 
L 294.380207 37.948351 
z
" style="fill:#ffffff;stroke:#ffffff;stroke-width:1.5;"/>
    <path clip-path="url(#p4a13a9e5d7)" d="M 294.3222 276.06742 
L 294.554229 276.06742 
L 294.554229 45.043741 
L 294.3222 45.043741 
z
" style="fill:#f8f8f8;stroke:#ffffff;stroke-width:1.5;"/>
    <path clip-path="url(#p4a13a9e5d7)" d="M 294.206185 274.634594 
L 294.670243 274.634594 
L 294.670243 67.699233 
L 294.206185 67.699233 
z
" style="fill:#f1f1f1;stroke:#ffffff;stroke-width:1.5;"/>
    <path clip-path="url(#p4a13a9e5d7)" d="M 293.974156 266.010305 
L 294.902272 266.010305 
L 294.902272 101.246874 
L 293.974156 101.246874 
z
" style="fill:#e9e9e9;stroke:#ffffff;stroke-width:1.5;"/>
    <path clip-path="url(#p4a13a9e5d7)" d="M 293.510098 254.306807 
L 295.36633 254.306807 
L 295.36633 111.253621 
L 293.510098 111.253621 
z
" style="fill:#e2e2e2;stroke:#ffffff;stroke-width:1.5;"/>
    <path clip-path="url(#p4a13a9e5d7)" d="M 292.581982 249.757752 
L 296.294446 249.757752 
L 296.294446 117.02587 
L 292.581982 117.02587 
z
" style="fill:#dadada;stroke:#ffffff;stroke-width:1.5;"/>
    <path clip-path="url(#p4a13a9e5d7)" d="M 290.72575 242.778123 
L 298.150679 242.778123 
L 298.150679 121.076651 
L 290.72575 121.076651 
z
" style="fill:#d3d3d3;stroke:#ffffff;stroke-width:1.5;"/>
    <path clip-path="url(#p4a13a9e5d7)" d="M 287.013286 233.121512 
L 301.863143 233.121512 
L 301.863143 123.602694 
L 287.013286 123.602694 
z
" style="fill:#cbcbcb;stroke:#ffffff;stroke-width:1.5;"/>
    <path clip-path="url(#p4a13a9e5d7)" d="M 279.588357 224.199337 
L 309.288071 224.199337 
L 309.288071 134.241446 
L 279.588357 134.241446 
z
" style="fill:#c4c4c4;stroke:#ffffff;stroke-width:1.5;"/>
    <path clip-path="url(#p4a13a9e5d7)" d="M 264.7385 213.885629 
L 324.137929 213.885629 
L 324.137929 165.425414 
L 264.7385 165.425414 
z
" style="fill:#bdbdbd;stroke:#ffffff;stroke-width:1.5;"/>
   </g>
   <g id="PathCollection_4">
    <defs>
     <path d="M -0 6.363961 
L 3.818377 0 
L 0 -6.363961 
L -3.818377 -0 
z
" id="m259d171c28" style="stroke:#959595;stroke-width:1.5;"/>
    </defs>
    <g clip-path="url(#p4a13a9e5d7)">
     <use style="fill:#959595;stroke:#959595;stroke-width:1.5;" x="368.6875" xlink:href="#m259d171c28" y="265.071963"/>
     <use style="fill:#959595;stroke:#959595;stroke-width:1.5;" x="368.6875" xlink:href="#m259d171c28" y="90.230462"/>
    </g>
   </g>
   <g id="PatchCollection_4">
    <path clip-path="url(#p4a13a9e5d7)" d="M 368.571485 258.723796 
L 368.803515 258.723796 
L 368.803515 93.427528 
L 368.571485 93.427528 
z
" style="fill:#ffffff;stroke:#ffffff;stroke-width:1.5;"/>
    <path clip-path="url(#p4a13a9e5d7)" d="M 368.455471 254.82776 
L 368.919529 254.82776 
L 368.919529 96.988036 
L 368.455471 96.988036 
z
" style="fill:#f2f2f2;stroke:#ffffff;stroke-width:1.5;"/>
    <path clip-path="url(#p4a13a9e5d7)" d="M 368.223442 254.628421 
L 369.151558 254.628421 
L 369.151558 103.012288 
L 368.223442 103.012288 
z
" style="fill:#e4e4e4;stroke:#ffffff;stroke-width:1.5;"/>
    <path clip-path="url(#p4a13a9e5d7)" d="M 367.759384 251.720686 
L 369.615616 251.720686 
L 369.615616 108.832913 
L 367.759384 108.832913 
z
" style="fill:#d7d7d7;stroke:#ffffff;stroke-width:1.5;"/>
    <path clip-path="url(#p4a13a9e5d7)" d="M 366.831268 248.634664 
L 370.543732 248.634664 
L 370.543732 118.026329 
L 366.831268 118.026329 
z
" style="fill:#cacaca;stroke:#ffffff;stroke-width:1.5;"/>
    <path clip-path="url(#p4a13a9e5d7)" d="M 364.975036 240.638811 
L 372.399964 240.638811 
L 372.399964 121.164924 
L 364.975036 121.164924 
z
" style="fill:#bcbcbc;stroke:#ffffff;stroke-width:1.5;"/>
    <path clip-path="url(#p4a13a9e5d7)" d="M 361.262571 233.64711 
L 376.112429 233.64711 
L 376.112429 123.773939 
L 361.262571 123.773939 
z
" style="fill:#afafaf;stroke:#ffffff;stroke-width:1.5;"/>
    <path clip-path="url(#p4a13a9e5d7)" d="M 353.837643 224.199337 
L 383.537357 224.199337 
L 383.537357 139.772633 
L 353.837643 139.772633 
z
" style="fill:#a2a2a2;stroke:#ffffff;stroke-width:1.5;"/>
    <path clip-path="url(#p4a13a9e5d7)" d="M 338.987786 213.472563 
L 398.387214 213.472563 
L 398.387214 172.036293 
L 338.987786 172.036293 
z
" style="fill:#959595;stroke:#ffffff;stroke-width:1.5;"/>
   </g>
   <g id="PathCollection_5">
    <defs>
     <path d="M -0 6.363961 
L 3.818377 0 
L 0 -6.363961 
L -3.818377 -0 
z
" id="m4e202cf9a6" style="stroke:#727272;stroke-width:1.5;"/>
    </defs>
    <g clip-path="url(#p4a13a9e5d7)">
     <use style="fill:#727272;stroke:#727272;stroke-width:1.5;" x="442.936786" xlink:href="#m4e202cf9a6" y="265.071963"/>
     <use style="fill:#727272;stroke:#727272;stroke-width:1.5;" x="442.936786" xlink:href="#m4e202cf9a6" y="32.414923"/>
    </g>
   </g>
   <g id="PatchCollection_5">
    <path clip-path="url(#p4a13a9e5d7)" d="M 442.878778 261.953982 
L 442.994793 261.953982 
L 442.994793 38.786181 
L 442.878778 38.786181 
z
" style="fill:#ffffff;stroke:#ffffff;stroke-width:1.5;"/>
    <path clip-path="url(#p4a13a9e5d7)" d="M 442.820771 259.178864 
L 443.0528 259.178864 
L 443.0528 47.3264 
L 442.820771 47.3264 
z
" style="fill:#f0f0f0;stroke:#ffffff;stroke-width:1.5;"/>
    <path clip-path="url(#p4a13a9e5d7)" d="M 442.704757 254.721068 
L 443.168815 254.721068 
L 443.168815 80.518512 
L 442.704757 80.518512 
z
" style="fill:#e0e0e0;stroke:#ffffff;stroke-width:1.5;"/>
    <path clip-path="url(#p4a13a9e5d7)" d="M 442.472728 252.608837 
L 443.400844 252.608837 
L 443.400844 90.77006 
L 442.472728 90.77006 
z
" style="fill:#d0d0d0;stroke:#ffffff;stroke-width:1.5;"/>
    <path clip-path="url(#p4a13a9e5d7)" d="M 442.00867 250.338589 
L 443.864902 250.338589 
L 443.864902 101.356576 
L 442.00867 101.356576 
z
" style="fill:#c1c1c1;stroke:#ffffff;stroke-width:1.5;"/>
    <path clip-path="url(#p4a13a9e5d7)" d="M 441.080554 248.634664 
L 444.793018 248.634664 
L 444.793018 112.20044 
L 441.080554 112.20044 
z
" style="fill:#b0b0b0;stroke:#ffffff;stroke-width:1.5;"/>
    <path clip-path="url(#p4a13a9e5d7)" d="M 439.224321 239.802298 
L 446.64925 239.802298 
L 446.64925 120.227308 
L 439.224321 120.227308 
z
" style="fill:#a1a1a1;stroke:#ffffff;stroke-width:1.5;"/>
    <path clip-path="url(#p4a13a9e5d7)" d="M 435.511857 232.461423 
L 450.361714 232.461423 
L 450.361714 123.404325 
L 435.511857 123.404325 
z
" style="fill:#919191;stroke:#ffffff;stroke-width:1.5;"/>
    <path clip-path="url(#p4a13a9e5d7)" d="M 428.086929 223.176311 
L 457.786643 223.176311 
L 457.786643 130.360774 
L 428.086929 130.360774 
z
" style="fill:#818181;stroke:#ffffff;stroke-width:1.5;"/>
    <path clip-path="url(#p4a13a9e5d7)" d="M 413.237071 212.932108 
L 472.6365 212.932108 
L 472.6365 165.548061 
L 413.237071 165.548061 
z
" style="fill:#727272;stroke:#ffffff;stroke-width:1.5;"/>
   </g>
   <g id="PathCollection_6">
    <defs>
     <path d="M -0 6.363961 
L 3.818377 0 
L 0 -6.363961 
L -3.818377 -0 
z
" id="m436d585e33" style="stroke:#515151;stroke-width:1.5;"/>
    </defs>
    <g clip-path="url(#p4a13a9e5d7)">
     <use style="fill:#515151;stroke:#515151;stroke-width:1.5;" x="517.186071" xlink:href="#m436d585e33" y="275.316166"/>
     <use style="fill:#515151;stroke:#515151;stroke-width:1.5;" x="517.186071" xlink:href="#m436d585e33" y="90.230462"/>
    </g>
   </g>
   <g id="PatchCollection_6">
    <path clip-path="url(#p4a13a9e5d7)" d="M 517.070057 269.481756 
L 517.302086 269.481756 
L 517.302086 96.979096 
L 517.070057 96.979096 
z
" style="fill:#ffffff;stroke:#ffffff;stroke-width:1.5;"/>
    <path clip-path="url(#p4a13a9e5d7)" d="M 516.954042 265.942112 
L 517.4181 265.942112 
L 517.4181 102.980147 
L 516.954042 102.980147 
z
" style="fill:#e9e9e9;stroke:#ffffff;stroke-width:1.5;"/>
    <path clip-path="url(#p4a13a9e5d7)" d="M 516.722013 263.171419 
L 517.650129 263.171419 
L 517.650129 104.313282 
L 516.722013 104.313282 
z
" style="fill:#d3d3d3;stroke:#ffffff;stroke-width:1.5;"/>
    <path clip-path="url(#p4a13a9e5d7)" d="M 516.257955 254.306807 
L 518.114187 254.306807 
L 518.114187 111.725106 
L 516.257955 111.725106 
z
" style="fill:#bdbdbd;stroke:#ffffff;stroke-width:1.5;"/>
    <path clip-path="url(#p4a13a9e5d7)" d="M 515.329839 249.757752 
L 519.042304 249.757752 
L 519.042304 120.188357 
L 515.329839 120.188357 
z
" style="fill:#a8a8a8;stroke:#ffffff;stroke-width:1.5;"/>
    <path clip-path="url(#p4a13a9e5d7)" d="M 513.473607 242.346227 
L 520.898536 242.346227 
L 520.898536 121.257055 
L 513.473607 121.257055 
z
" style="fill:#929292;stroke:#ffffff;stroke-width:1.5;"/>
    <path clip-path="url(#p4a13a9e5d7)" d="M 509.761143 234.339354 
L 524.611 234.339354 
L 524.611 123.92415 
L 509.761143 123.92415 
z
" style="fill:#7c7c7c;stroke:#ffffff;stroke-width:1.5;"/>
    <path clip-path="url(#p4a13a9e5d7)" d="M 502.336214 223.785143 
L 532.035929 223.785143 
L 532.035929 139.720973 
L 502.336214 139.720973 
z
" style="fill:#666666;stroke:#ffffff;stroke-width:1.5;"/>
    <path clip-path="url(#p4a13a9e5d7)" d="M 487.486357 213.20089 
L 546.885786 213.20089 
L 546.885786 172.056168 
L 487.486357 172.056168 
z
" style="fill:#515151;stroke:#ffffff;stroke-width:1.5;"/>
   </g>
   <g id="PathCollection_7">
    <defs>
     <path d="M -0 6.363961 
L 3.818377 0 
L 0 -6.363961 
L -3.818377 -0 
z
" id="m41554732de" style="stroke:#242424;stroke-width:1.5;"/>
    </defs>
    <g clip-path="url(#p4a13a9e5d7)">
     <use style="fill:#242424;stroke:#242424;stroke-width:1.5;" x="591.435357" xlink:href="#m41554732de" y="280.562239"/>
     <use style="fill:#242424;stroke:#242424;stroke-width:1.5;" x="591.435357" xlink:href="#m41554732de" y="90.230462"/>
    </g>
   </g>
   <g id="PatchCollection_7">
    <path clip-path="url(#p4a13a9e5d7)" d="M 591.319343 272.754943 
L 591.551372 272.754943 
L 591.551372 92.834475 
L 591.319343 92.834475 
z
" style="fill:#ffffff;stroke:#ffffff;stroke-width:1.5;"/>
    <path clip-path="url(#p4a13a9e5d7)" d="M 591.203328 266.799233 
L 591.667386 266.799233 
L 591.667386 95.738045 
L 591.203328 95.738045 
z
" style="fill:#e4e4e4;stroke:#ffffff;stroke-width:1.5;"/>
    <path clip-path="url(#p4a13a9e5d7)" d="M 590.971299 265.195631 
L 591.899415 265.195631 
L 591.899415 102.021099 
L 590.971299 102.021099 
z
" style="fill:#c8c8c8;stroke:#ffffff;stroke-width:1.5;"/>
    <path clip-path="url(#p4a13a9e5d7)" d="M 590.507241 251.793517 
L 592.363473 251.793517 
L 592.363473 108.973487 
L 590.507241 108.973487 
z
" style="fill:#adadad;stroke:#ffffff;stroke-width:1.5;"/>
    <path clip-path="url(#p4a13a9e5d7)" d="M 589.579125 248.634664 
L 593.291589 248.634664 
L 593.291589 118.256589 
L 589.579125 118.256589 
z
" style="fill:#919191;stroke:#ffffff;stroke-width:1.5;"/>
    <path clip-path="url(#p4a13a9e5d7)" d="M 587.722893 241.869009 
L 595.147821 241.869009 
L 595.147821 121.169788 
L 587.722893 121.169788 
z
" style="fill:#767676;stroke:#ffffff;stroke-width:1.5;"/>
    <path clip-path="url(#p4a13a9e5d7)" d="M 584.010429 233.121512 
L 598.860286 233.121512 
L 598.860286 123.285277 
L 584.010429 123.285277 
z
" style="fill:#5a5a5a;stroke:#ffffff;stroke-width:1.5;"/>
    <path clip-path="url(#p4a13a9e5d7)" d="M 576.5855 224.199337 
L 606.285214 224.199337 
L 606.285214 128.6488 
L 576.5855 128.6488 
z
" style="fill:#3f3f3f;stroke:#ffffff;stroke-width:1.5;"/>
    <path clip-path="url(#p4a13a9e5d7)" d="M 561.735643 213.472563 
L 621.135071 213.472563 
L 621.135071 164.465096 
L 561.735643 164.465096 
z
" style="fill:#242424;stroke:#ffffff;stroke-width:1.5;"/>
   </g>
   <g id="line2d_1">
    <path clip-path="url(#p4a13a9e5d7)" d="M 116.239929 195.82378 
L 175.639357 195.82378 
" style="fill:none;stroke:#262626;stroke-linecap:round;stroke-opacity:0.45;stroke-width:2.25;"/>
   </g>
   <g id="line2d_2">
    <path clip-path="url(#p4a13a9e5d7)" d="M 190.489214 194.116903 
L 249.888643 194.116903 
" style="fill:none;stroke:#262626;stroke-linecap:round;stroke-opacity:0.45;stroke-width:2.25;"/>
   </g>
   <g id="line2d_3">
    <path clip-path="url(#p4a13a9e5d7)" d="M 264.7385 195.688309 
L 324.137929 195.688309 
" style="fill:none;stroke:#262626;stroke-linecap:round;stroke-opacity:0.45;stroke-width:2.25;"/>
   </g>
   <g id="line2d_4">
    <path clip-path="url(#p4a13a9e5d7)" d="M 338.987786 198.470659 
L 398.387214 198.470659 
" style="fill:none;stroke:#262626;stroke-linecap:round;stroke-opacity:0.45;stroke-width:2.25;"/>
   </g>
   <g id="line2d_5">
    <path clip-path="url(#p4a13a9e5d7)" d="M 413.237071 194.116903 
L 472.6365 194.116903 
" style="fill:none;stroke:#262626;stroke-linecap:round;stroke-opacity:0.45;stroke-width:2.25;"/>
   </g>
   <g id="line2d_6">
    <path clip-path="url(#p4a13a9e5d7)" d="M 487.486357 197.436262 
L 546.885786 197.436262 
" style="fill:none;stroke:#262626;stroke-linecap:round;stroke-opacity:0.45;stroke-width:2.25;"/>
   </g>
   <g id="line2d_7">
    <path clip-path="url(#p4a13a9e5d7)" d="M 561.735643 193.927175 
L 621.135071 193.927175 
" style="fill:none;stroke:#262626;stroke-linecap:round;stroke-opacity:0.45;stroke-width:2.25;"/>
   </g>
   <g id="patch_3">
    <path d="M 108.815 290.856875 
L 108.815 19.44 
" style="fill:none;stroke:#262626;stroke-linecap:square;stroke-linejoin:miter;stroke-width:1.875;"/>
   </g>
   <g id="patch_4">
    <path d="M 108.815 290.856875 
L 628.56 290.856875 
" style="fill:none;stroke:#262626;stroke-linecap:square;stroke-linejoin:miter;stroke-width:1.875;"/>
   </g>
  </g>
 </g>
 <defs>
  <clipPath id="p4a13a9e5d7">
   <rect height="271.416875" width="519.745" x="108.815" y="19.44"/>
  </clipPath>
 </defs>
</svg>
