<?xml version="1.0" encoding="utf-8" standalone="no"?>
<!DOCTYPE svg PUBLIC "-//W3C//DTD SVG 1.1//EN"
  "http://www.w3.org/Graphics/SVG/1.1/DTD/svg11.dtd">
<!-- Created with matplotlib (https://matplotlib.org/) -->
<svg height="360pt" version="1.1" viewBox="0 0 648 360" width="648pt" xmlns="http://www.w3.org/2000/svg" xmlns:xlink="http://www.w3.org/1999/xlink">
 <defs>
  <style type="text/css">
*{stroke-linecap:butt;stroke-linejoin:round;}
  </style>
 </defs>
 <g id="figure_1">
  <g id="patch_1">
   <path d="M 0 360 
L 648 360 
L 648 0 
L 0 0 
z
" style="fill:#ffffff;"/>
  </g>
  <g id="axes_1">
   <g id="patch_2">
    <path d="M 116.94 288.06 
L 619.56 288.06 
L 619.56 28.44 
L 116.94 28.44 
z
" style="fill:#ffffff;"/>
   </g>
   <g id="matplotlib.axis_1">
    <g id="xtick_1">
     <g id="text_1">
      <!-- A_J -->
      <defs>
       <path d="M 34.1875 63.1875 
L 20.796875 26.90625 
L 47.609375 26.90625 
z
M 28.609375 72.90625 
L 39.796875 72.90625 
L 67.578125 0 
L 57.328125 0 
L 50.6875 18.703125 
L 17.828125 18.703125 
L 11.1875 0 
L 0.78125 0 
z
" id="DejaVuSans-65"/>
       <path d="M 50.984375 -16.609375 
L 50.984375 -23.578125 
L -0.984375 -23.578125 
L -0.984375 -16.609375 
z
" id="DejaVuSans-95"/>
       <path d="M 9.8125 72.90625 
L 19.671875 72.90625 
L 19.671875 5.078125 
Q 19.671875 -8.109375 14.671875 -14.0625 
Q 9.671875 -20.015625 -1.421875 -20.015625 
L -5.171875 -20.015625 
L -5.171875 -11.71875 
L -2.09375 -11.71875 
Q 4.4375 -11.71875 7.125 -8.046875 
Q 9.8125 -4.390625 9.8125 5.078125 
z
" id="DejaVuSans-74"/>
      </defs>
      <g style="fill:#262626;" transform="translate(156.935491 324.964531)rotate(-90)scale(0.165 -0.165)">
       <use xlink:href="#DejaVuSans-65"/>
       <use x="68.408203" xlink:href="#DejaVuSans-95"/>
       <use x="118.408203" xlink:href="#DejaVuSans-74"/>
      </g>
     </g>
    </g>
    <g id="xtick_2">
     <g id="text_2">
      <!-- AKR_J -->
      <defs>
       <path d="M 9.8125 72.90625 
L 19.671875 72.90625 
L 19.671875 42.09375 
L 52.390625 72.90625 
L 65.09375 72.90625 
L 28.90625 38.921875 
L 67.671875 0 
L 54.6875 0 
L 19.671875 35.109375 
L 19.671875 0 
L 9.8125 0 
z
" id="DejaVuSans-75"/>
       <path d="M 44.390625 34.1875 
Q 47.5625 33.109375 50.5625 29.59375 
Q 53.5625 26.078125 56.59375 19.921875 
L 66.609375 0 
L 56 0 
L 46.6875 18.703125 
Q 43.0625 26.03125 39.671875 28.421875 
Q 36.28125 30.8125 30.421875 30.8125 
L 19.671875 30.8125 
L 19.671875 0 
L 9.8125 0 
L 9.8125 72.90625 
L 32.078125 72.90625 
Q 44.578125 72.90625 50.734375 67.671875 
Q 56.890625 62.453125 56.890625 51.90625 
Q 56.890625 45.015625 53.6875 40.46875 
Q 50.484375 35.9375 44.390625 34.1875 
z
M 19.671875 64.796875 
L 19.671875 38.921875 
L 32.078125 38.921875 
Q 39.203125 38.921875 42.84375 42.21875 
Q 46.484375 45.515625 46.484375 51.90625 
Q 46.484375 58.296875 42.84375 61.546875 
Q 39.203125 64.796875 32.078125 64.796875 
z
" id="DejaVuSans-82"/>
      </defs>
      <g style="fill:#262626;" transform="translate(228.738348 347.249844)rotate(-90)scale(0.165 -0.165)">
       <use xlink:href="#DejaVuSans-65"/>
       <use x="68.408203" xlink:href="#DejaVuSans-75"/>
       <use x="133.984375" xlink:href="#DejaVuSans-82"/>
       <use x="203.466797" xlink:href="#DejaVuSans-95"/>
       <use x="253.466797" xlink:href="#DejaVuSans-74"/>
      </g>
     </g>
    </g>
    <g id="xtick_3">
     <g id="text_3">
      <!-- BALB_CJ -->
      <defs>
       <path d="M 19.671875 34.8125 
L 19.671875 8.109375 
L 35.5 8.109375 
Q 43.453125 8.109375 47.28125 11.40625 
Q 51.125 14.703125 51.125 21.484375 
Q 51.125 28.328125 47.28125 31.5625 
Q 43.453125 34.8125 35.5 34.8125 
z
M 19.671875 64.796875 
L 19.671875 42.828125 
L 34.28125 42.828125 
Q 41.5 42.828125 45.03125 45.53125 
Q 48.578125 48.25 48.578125 53.8125 
Q 48.578125 59.328125 45.03125 62.0625 
Q 41.5 64.796875 34.28125 64.796875 
z
M 9.8125 72.90625 
L 35.015625 72.90625 
Q 46.296875 72.90625 52.390625 68.21875 
Q 58.5 63.53125 58.5 54.890625 
Q 58.5 48.1875 55.375 44.234375 
Q 52.25 40.28125 46.1875 39.3125 
Q 53.46875 37.75 57.5 32.78125 
Q 61.53125 27.828125 61.53125 20.40625 
Q 61.53125 10.640625 54.890625 5.3125 
Q 48.25 0 35.984375 0 
L 9.8125 0 
z
" id="DejaVuSans-66"/>
       <path d="M 9.8125 72.90625 
L 19.671875 72.90625 
L 19.671875 8.296875 
L 55.171875 8.296875 
L 55.171875 0 
L 9.8125 0 
z
" id="DejaVuSans-76"/>
       <path d="M 64.40625 67.28125 
L 64.40625 56.890625 
Q 59.421875 61.53125 53.78125 63.8125 
Q 48.140625 66.109375 41.796875 66.109375 
Q 29.296875 66.109375 22.65625 58.46875 
Q 16.015625 50.828125 16.015625 36.375 
Q 16.015625 21.96875 22.65625 14.328125 
Q 29.296875 6.6875 41.796875 6.6875 
Q 48.140625 6.6875 53.78125 8.984375 
Q 59.421875 11.28125 64.40625 15.921875 
L 64.40625 5.609375 
Q 59.234375 2.09375 53.4375 0.328125 
Q 47.65625 -1.421875 41.21875 -1.421875 
Q 24.65625 -1.421875 15.125 8.703125 
Q 5.609375 18.84375 5.609375 36.375 
Q 5.609375 53.953125 15.125 64.078125 
Q 24.65625 74.21875 41.21875 74.21875 
Q 47.75 74.21875 53.53125 72.484375 
Q 59.328125 70.75 64.40625 67.28125 
z
" id="DejaVuSans-67"/>
      </defs>
      <g style="fill:#262626;" transform="translate(300.624994 368.320859)rotate(-90)scale(0.165 -0.165)">
       <use xlink:href="#DejaVuSans-66"/>
       <use x="68.603516" xlink:href="#DejaVuSans-65"/>
       <use x="137.011719" xlink:href="#DejaVuSans-76"/>
       <use x="192.724609" xlink:href="#DejaVuSans-66"/>
       <use x="261.328125" xlink:href="#DejaVuSans-95"/>
       <use x="311.328125" xlink:href="#DejaVuSans-67"/>
       <use x="381.152344" xlink:href="#DejaVuSans-74"/>
      </g>
     </g>
    </g>
    <g id="xtick_4">
     <g id="text_4">
      <!-- CBA_J -->
      <g style="fill:#262626;" transform="translate(372.427852 347.806719)rotate(-90)scale(0.165 -0.165)">
       <use xlink:href="#DejaVuSans-67"/>
       <use x="69.824219" xlink:href="#DejaVuSans-66"/>
       <use x="138.427734" xlink:href="#DejaVuSans-65"/>
       <use x="206.835938" xlink:href="#DejaVuSans-95"/>
       <use x="256.835938" xlink:href="#DejaVuSans-74"/>
      </g>
     </g>
    </g>
    <g id="xtick_5">
     <g id="text_5">
      <!-- C3H_HeJ -->
      <defs>
       <path d="M 40.578125 39.3125 
Q 47.65625 37.796875 51.625 33 
Q 55.609375 28.21875 55.609375 21.1875 
Q 55.609375 10.40625 48.1875 4.484375 
Q 40.765625 -1.421875 27.09375 -1.421875 
Q 22.515625 -1.421875 17.65625 -0.515625 
Q 12.796875 0.390625 7.625 2.203125 
L 7.625 11.71875 
Q 11.71875 9.328125 16.59375 8.109375 
Q 21.484375 6.890625 26.8125 6.890625 
Q 36.078125 6.890625 40.9375 10.546875 
Q 45.796875 14.203125 45.796875 21.1875 
Q 45.796875 27.640625 41.28125 31.265625 
Q 36.765625 34.90625 28.71875 34.90625 
L 20.21875 34.90625 
L 20.21875 43.015625 
L 29.109375 43.015625 
Q 36.375 43.015625 40.234375 45.921875 
Q 44.09375 48.828125 44.09375 54.296875 
Q 44.09375 59.90625 40.109375 62.90625 
Q 36.140625 65.921875 28.71875 65.921875 
Q 24.65625 65.921875 20.015625 65.03125 
Q 15.375 64.15625 9.8125 62.3125 
L 9.8125 71.09375 
Q 15.4375 72.65625 20.34375 73.4375 
Q 25.25 74.21875 29.59375 74.21875 
Q 40.828125 74.21875 47.359375 69.109375 
Q 53.90625 64.015625 53.90625 55.328125 
Q 53.90625 49.265625 50.4375 45.09375 
Q 46.96875 40.921875 40.578125 39.3125 
z
" id="DejaVuSans-51"/>
       <path d="M 9.8125 72.90625 
L 19.671875 72.90625 
L 19.671875 43.015625 
L 55.515625 43.015625 
L 55.515625 72.90625 
L 65.375 72.90625 
L 65.375 0 
L 55.515625 0 
L 55.515625 34.71875 
L 19.671875 34.71875 
L 19.671875 0 
L 9.8125 0 
z
" id="DejaVuSans-72"/>
       <path d="M 56.203125 29.59375 
L 56.203125 25.203125 
L 14.890625 25.203125 
Q 15.484375 15.921875 20.484375 11.0625 
Q 25.484375 6.203125 34.421875 6.203125 
Q 39.59375 6.203125 44.453125 7.46875 
Q 49.3125 8.734375 54.109375 11.28125 
L 54.109375 2.78125 
Q 49.265625 0.734375 44.1875 -0.34375 
Q 39.109375 -1.421875 33.890625 -1.421875 
Q 20.796875 -1.421875 13.15625 6.1875 
Q 5.515625 13.8125 5.515625 26.8125 
Q 5.515625 40.234375 12.765625 48.109375 
Q 20.015625 56 32.328125 56 
Q 43.359375 56 49.78125 48.890625 
Q 56.203125 41.796875 56.203125 29.59375 
z
M 47.21875 32.234375 
Q 47.125 39.59375 43.09375 43.984375 
Q 39.0625 48.390625 32.421875 48.390625 
Q 24.90625 48.390625 20.390625 44.140625 
Q 15.875 39.890625 15.1875 32.171875 
z
" id="DejaVuSans-101"/>
      </defs>
      <g style="fill:#262626;" transform="translate(444.230709 370.666953)rotate(-90)scale(0.165 -0.165)">
       <use xlink:href="#DejaVuSans-67"/>
       <use x="69.824219" xlink:href="#DejaVuSans-51"/>
       <use x="133.447266" xlink:href="#DejaVuSans-72"/>
       <use x="208.642578" xlink:href="#DejaVuSans-95"/>
       <use x="258.642578" xlink:href="#DejaVuSans-72"/>
       <use x="333.837891" xlink:href="#DejaVuSans-101"/>
       <use x="395.361328" xlink:href="#DejaVuSans-74"/>
      </g>
     </g>
    </g>
    <g id="xtick_6">
     <g id="text_6">
      <!-- DBA_2J -->
      <defs>
       <path d="M 19.671875 64.796875 
L 19.671875 8.109375 
L 31.59375 8.109375 
Q 46.6875 8.109375 53.6875 14.9375 
Q 60.6875 21.78125 60.6875 36.53125 
Q 60.6875 51.171875 53.6875 57.984375 
Q 46.6875 64.796875 31.59375 64.796875 
z
M 9.8125 72.90625 
L 30.078125 72.90625 
Q 51.265625 72.90625 61.171875 64.09375 
Q 71.09375 55.28125 71.09375 36.53125 
Q 71.09375 17.671875 61.125 8.828125 
Q 51.171875 0 30.078125 0 
L 9.8125 0 
z
" id="DejaVuSans-68"/>
       <path d="M 19.1875 8.296875 
L 53.609375 8.296875 
L 53.609375 0 
L 7.328125 0 
L 7.328125 8.296875 
Q 12.9375 14.109375 22.625 23.890625 
Q 32.328125 33.6875 34.8125 36.53125 
Q 39.546875 41.84375 41.421875 45.53125 
Q 43.3125 49.21875 43.3125 52.78125 
Q 43.3125 58.59375 39.234375 62.25 
Q 35.15625 65.921875 28.609375 65.921875 
Q 23.96875 65.921875 18.8125 64.3125 
Q 13.671875 62.703125 7.8125 59.421875 
L 7.8125 69.390625 
Q 13.765625 71.78125 18.9375 73 
Q 24.125 74.21875 28.421875 74.21875 
Q 39.75 74.21875 46.484375 68.546875 
Q 53.21875 62.890625 53.21875 53.421875 
Q 53.21875 48.921875 51.53125 44.890625 
Q 49.859375 40.875 45.40625 35.40625 
Q 44.1875 33.984375 37.640625 27.21875 
Q 31.109375 20.453125 19.1875 8.296875 
z
" id="DejaVuSans-50"/>
      </defs>
      <g style="fill:#262626;" transform="translate(516.033566 359.488203)rotate(-90)scale(0.165 -0.165)">
       <use xlink:href="#DejaVuSans-68"/>
       <use x="77.001953" xlink:href="#DejaVuSans-66"/>
       <use x="145.605469" xlink:href="#DejaVuSans-65"/>
       <use x="214.013672" xlink:href="#DejaVuSans-95"/>
       <use x="264.013672" xlink:href="#DejaVuSans-50"/>
       <use x="327.636719" xlink:href="#DejaVuSans-74"/>
      </g>
     </g>
    </g>
    <g id="xtick_7">
     <g id="text_7">
      <!-- LP_J -->
      <defs>
       <path d="M 19.671875 64.796875 
L 19.671875 37.40625 
L 32.078125 37.40625 
Q 38.96875 37.40625 42.71875 40.96875 
Q 46.484375 44.53125 46.484375 51.125 
Q 46.484375 57.671875 42.71875 61.234375 
Q 38.96875 64.796875 32.078125 64.796875 
z
M 9.8125 72.90625 
L 32.078125 72.90625 
Q 44.34375 72.90625 50.609375 67.359375 
Q 56.890625 61.8125 56.890625 51.125 
Q 56.890625 40.328125 50.609375 34.8125 
Q 44.34375 29.296875 32.078125 29.296875 
L 19.671875 29.296875 
L 19.671875 0 
L 9.8125 0 
z
" id="DejaVuSans-80"/>
      </defs>
      <g style="fill:#262626;" transform="translate(587.752634 332.820078)rotate(-90)scale(0.165 -0.165)">
       <use xlink:href="#DejaVuSans-76"/>
       <use x="55.712891" xlink:href="#DejaVuSans-80"/>
       <use x="116.015625" xlink:href="#DejaVuSans-95"/>
       <use x="166.015625" xlink:href="#DejaVuSans-74"/>
      </g>
     </g>
    </g>
   </g>
   <g id="matplotlib.axis_2">
    <g id="ytick_1">
     <g id="text_8">
      <!-- $\mathdefault{10^{1}}$ -->
      <defs>
       <path d="M 12.40625 8.296875 
L 28.515625 8.296875 
L 28.515625 63.921875 
L 10.984375 60.40625 
L 10.984375 69.390625 
L 28.421875 72.90625 
L 38.28125 72.90625 
L 38.28125 8.296875 
L 54.390625 8.296875 
L 54.390625 0 
L 12.40625 0 
z
" id="DejaVuSans-49"/>
       <path d="M 31.78125 66.40625 
Q 24.171875 66.40625 20.328125 58.90625 
Q 16.5 51.421875 16.5 36.375 
Q 16.5 21.390625 20.328125 13.890625 
Q 24.171875 6.390625 31.78125 6.390625 
Q 39.453125 6.390625 43.28125 13.890625 
Q 47.125 21.390625 47.125 36.375 
Q 47.125 51.421875 43.28125 58.90625 
Q 39.453125 66.40625 31.78125 66.40625 
z
M 31.78125 74.21875 
Q 44.046875 74.21875 50.515625 64.515625 
Q 56.984375 54.828125 56.984375 36.375 
Q 56.984375 17.96875 50.515625 8.265625 
Q 44.046875 -1.421875 31.78125 -1.421875 
Q 19.53125 -1.421875 13.0625 8.265625 
Q 6.59375 17.96875 6.59375 36.375 
Q 6.59375 54.828125 13.0625 64.515625 
Q 19.53125 74.21875 31.78125 74.21875 
z
" id="DejaVuSans-48"/>
      </defs>
      <g style="fill:#262626;" transform="translate(75.4 290.787398)scale(0.165 -0.165)">
       <use transform="translate(0 0.684375)" xlink:href="#DejaVuSans-49"/>
       <use transform="translate(63.623047 0.684375)" xlink:href="#DejaVuSans-48"/>
       <use transform="translate(128.203125 38.965625)scale(0.7)" xlink:href="#DejaVuSans-49"/>
      </g>
     </g>
    </g>
    <g id="ytick_2">
     <g id="text_9">
      <!-- $\mathdefault{10^{2}}$ -->
      <g style="fill:#262626;" transform="translate(75.4 235.151389)scale(0.165 -0.165)">
       <use transform="translate(0 0.765625)" xlink:href="#DejaVuSans-49"/>
       <use transform="translate(63.623047 0.765625)" xlink:href="#DejaVuSans-48"/>
       <use transform="translate(128.203125 39.046875)scale(0.7)" xlink:href="#DejaVuSans-50"/>
      </g>
     </g>
    </g>
    <g id="ytick_3">
     <g id="text_10">
      <!-- $\mathdefault{10^{3}}$ -->
      <g style="fill:#262626;" transform="translate(75.4 179.51538)scale(0.165 -0.165)">
       <use transform="translate(0 0.765625)" xlink:href="#DejaVuSans-49"/>
       <use transform="translate(63.623047 0.765625)" xlink:href="#DejaVuSans-48"/>
       <use transform="translate(128.203125 39.046875)scale(0.7)" xlink:href="#DejaVuSans-51"/>
      </g>
     </g>
    </g>
    <g id="ytick_4">
     <g id="text_11">
      <!-- $\mathdefault{10^{4}}$ -->
      <defs>
       <path d="M 37.796875 64.3125 
L 12.890625 25.390625 
L 37.796875 25.390625 
z
M 35.203125 72.90625 
L 47.609375 72.90625 
L 47.609375 25.390625 
L 58.015625 25.390625 
L 58.015625 17.1875 
L 47.609375 17.1875 
L 47.609375 0 
L 37.796875 0 
L 37.796875 17.1875 
L 4.890625 17.1875 
L 4.890625 26.703125 
z
" id="DejaVuSans-52"/>
      </defs>
      <g style="fill:#262626;" transform="translate(75.4 123.87937)scale(0.165 -0.165)">
       <use transform="translate(0 0.684375)" xlink:href="#DejaVuSans-49"/>
       <use transform="translate(63.623047 0.684375)" xlink:href="#DejaVuSans-48"/>
       <use transform="translate(128.203125 38.965625)scale(0.7)" xlink:href="#DejaVuSans-52"/>
      </g>
     </g>
    </g>
    <g id="ytick_5">
     <g id="text_12">
      <!-- $\mathdefault{10^{5}}$ -->
      <defs>
       <path d="M 10.796875 72.90625 
L 49.515625 72.90625 
L 49.515625 64.59375 
L 19.828125 64.59375 
L 19.828125 46.734375 
Q 21.96875 47.46875 24.109375 47.828125 
Q 26.265625 48.1875 28.421875 48.1875 
Q 40.625 48.1875 47.75 41.5 
Q 54.890625 34.8125 54.890625 23.390625 
Q 54.890625 11.625 47.5625 5.09375 
Q 40.234375 -1.421875 26.90625 -1.421875 
Q 22.3125 -1.421875 17.546875 -0.640625 
Q 12.796875 0.140625 7.71875 1.703125 
L 7.71875 11.625 
Q 12.109375 9.234375 16.796875 8.0625 
Q 21.484375 6.890625 26.703125 6.890625 
Q 35.15625 6.890625 40.078125 11.328125 
Q 45.015625 15.765625 45.015625 23.390625 
Q 45.015625 31 40.078125 35.4375 
Q 35.15625 39.890625 26.703125 39.890625 
Q 22.75 39.890625 18.8125 39.015625 
Q 14.890625 38.140625 10.796875 36.28125 
z
" id="DejaVuSans-53"/>
      </defs>
      <g style="fill:#262626;" transform="translate(75.4 68.243361)scale(0.165 -0.165)">
       <use transform="translate(0 0.684375)" xlink:href="#DejaVuSans-49"/>
       <use transform="translate(63.623047 0.684375)" xlink:href="#DejaVuSans-48"/>
       <use transform="translate(128.203125 38.965625)scale(0.7)" xlink:href="#DejaVuSans-53"/>
      </g>
     </g>
    </g>
    <g id="ytick_6"/>
    <g id="ytick_7"/>
    <g id="ytick_8"/>
    <g id="ytick_9"/>
    <g id="ytick_10"/>
    <g id="ytick_11"/>
    <g id="ytick_12"/>
    <g id="ytick_13"/>
    <g id="ytick_14"/>
    <g id="ytick_15"/>
    <g id="ytick_16"/>
    <g id="ytick_17"/>
    <g id="ytick_18"/>
    <g id="ytick_19"/>
    <g id="ytick_20"/>
    <g id="ytick_21"/>
    <g id="ytick_22"/>
    <g id="ytick_23"/>
    <g id="ytick_24"/>
    <g id="ytick_25"/>
    <g id="ytick_26"/>
    <g id="ytick_27"/>
    <g id="ytick_28"/>
    <g id="ytick_29"/>
    <g id="ytick_30"/>
    <g id="ytick_31"/>
    <g id="ytick_32"/>
    <g id="ytick_33"/>
    <g id="ytick_34"/>
    <g id="ytick_35"/>
    <g id="ytick_36"/>
    <g id="ytick_37"/>
    <g id="ytick_38"/>
    <g id="ytick_39"/>
    <g id="ytick_40"/>
    <g id="ytick_41"/>
    <g id="text_13">
     <!-- Deletion Length (bp) -->
     <defs>
      <path d="M 9.421875 75.984375 
L 18.40625 75.984375 
L 18.40625 0 
L 9.421875 0 
z
" id="DejaVuSans-108"/>
      <path d="M 18.3125 70.21875 
L 18.3125 54.6875 
L 36.8125 54.6875 
L 36.8125 47.703125 
L 18.3125 47.703125 
L 18.3125 18.015625 
Q 18.3125 11.328125 20.140625 9.421875 
Q 21.96875 7.515625 27.59375 7.515625 
L 36.8125 7.515625 
L 36.8125 0 
L 27.59375 0 
Q 17.1875 0 13.234375 3.875 
Q 9.28125 7.765625 9.28125 18.015625 
L 9.28125 47.703125 
L 2.6875 47.703125 
L 2.6875 54.6875 
L 9.28125 54.6875 
L 9.28125 70.21875 
z
" id="DejaVuSans-116"/>
      <path d="M 9.421875 54.6875 
L 18.40625 54.6875 
L 18.40625 0 
L 9.421875 0 
z
M 9.421875 75.984375 
L 18.40625 75.984375 
L 18.40625 64.59375 
L 9.421875 64.59375 
z
" id="DejaVuSans-105"/>
      <path d="M 30.609375 48.390625 
Q 23.390625 48.390625 19.1875 42.75 
Q 14.984375 37.109375 14.984375 27.296875 
Q 14.984375 17.484375 19.15625 11.84375 
Q 23.34375 6.203125 30.609375 6.203125 
Q 37.796875 6.203125 41.984375 11.859375 
Q 46.1875 17.53125 46.1875 27.296875 
Q 46.1875 37.015625 41.984375 42.703125 
Q 37.796875 48.390625 30.609375 48.390625 
z
M 30.609375 56 
Q 42.328125 56 49.015625 48.375 
Q 55.71875 40.765625 55.71875 27.296875 
Q 55.71875 13.875 49.015625 6.21875 
Q 42.328125 -1.421875 30.609375 -1.421875 
Q 18.84375 -1.421875 12.171875 6.21875 
Q 5.515625 13.875 5.515625 27.296875 
Q 5.515625 40.765625 12.171875 48.375 
Q 18.84375 56 30.609375 56 
z
" id="DejaVuSans-111"/>
      <path d="M 54.890625 33.015625 
L 54.890625 0 
L 45.90625 0 
L 45.90625 32.71875 
Q 45.90625 40.484375 42.875 44.328125 
Q 39.84375 48.1875 33.796875 48.1875 
Q 26.515625 48.1875 22.3125 43.546875 
Q 18.109375 38.921875 18.109375 30.90625 
L 18.109375 0 
L 9.078125 0 
L 9.078125 54.6875 
L 18.109375 54.6875 
L 18.109375 46.1875 
Q 21.34375 51.125 25.703125 53.5625 
Q 30.078125 56 35.796875 56 
Q 45.21875 56 50.046875 50.171875 
Q 54.890625 44.34375 54.890625 33.015625 
z
" id="DejaVuSans-110"/>
      <path id="DejaVuSans-32"/>
      <path d="M 45.40625 27.984375 
Q 45.40625 37.75 41.375 43.109375 
Q 37.359375 48.484375 30.078125 48.484375 
Q 22.859375 48.484375 18.828125 43.109375 
Q 14.796875 37.75 14.796875 27.984375 
Q 14.796875 18.265625 18.828125 12.890625 
Q 22.859375 7.515625 30.078125 7.515625 
Q 37.359375 7.515625 41.375 12.890625 
Q 45.40625 18.265625 45.40625 27.984375 
z
M 54.390625 6.78125 
Q 54.390625 -7.171875 48.1875 -13.984375 
Q 42 -20.796875 29.203125 -20.796875 
Q 24.46875 -20.796875 20.265625 -20.09375 
Q 16.0625 -19.390625 12.109375 -17.921875 
L 12.109375 -9.1875 
Q 16.0625 -11.328125 19.921875 -12.34375 
Q 23.78125 -13.375 27.78125 -13.375 
Q 36.625 -13.375 41.015625 -8.765625 
Q 45.40625 -4.15625 45.40625 5.171875 
L 45.40625 9.625 
Q 42.625 4.78125 38.28125 2.390625 
Q 33.9375 0 27.875 0 
Q 17.828125 0 11.671875 7.65625 
Q 5.515625 15.328125 5.515625 27.984375 
Q 5.515625 40.671875 11.671875 48.328125 
Q 17.828125 56 27.875 56 
Q 33.9375 56 38.28125 53.609375 
Q 42.625 51.21875 45.40625 46.390625 
L 45.40625 54.6875 
L 54.390625 54.6875 
z
" id="DejaVuSans-103"/>
      <path d="M 54.890625 33.015625 
L 54.890625 0 
L 45.90625 0 
L 45.90625 32.71875 
Q 45.90625 40.484375 42.875 44.328125 
Q 39.84375 48.1875 33.796875 48.1875 
Q 26.515625 48.1875 22.3125 43.546875 
Q 18.109375 38.921875 18.109375 30.90625 
L 18.109375 0 
L 9.078125 0 
L 9.078125 75.984375 
L 18.109375 75.984375 
L 18.109375 46.1875 
Q 21.34375 51.125 25.703125 53.5625 
Q 30.078125 56 35.796875 56 
Q 45.21875 56 50.046875 50.171875 
Q 54.890625 44.34375 54.890625 33.015625 
z
" id="DejaVuSans-104"/>
      <path d="M 31 75.875 
Q 24.46875 64.65625 21.28125 53.65625 
Q 18.109375 42.671875 18.109375 31.390625 
Q 18.109375 20.125 21.3125 9.0625 
Q 24.515625 -2 31 -13.1875 
L 23.1875 -13.1875 
Q 15.875 -1.703125 12.234375 9.375 
Q 8.59375 20.453125 8.59375 31.390625 
Q 8.59375 42.28125 12.203125 53.3125 
Q 15.828125 64.359375 23.1875 75.875 
z
" id="DejaVuSans-40"/>
      <path d="M 48.6875 27.296875 
Q 48.6875 37.203125 44.609375 42.84375 
Q 40.53125 48.484375 33.40625 48.484375 
Q 26.265625 48.484375 22.1875 42.84375 
Q 18.109375 37.203125 18.109375 27.296875 
Q 18.109375 17.390625 22.1875 11.75 
Q 26.265625 6.109375 33.40625 6.109375 
Q 40.53125 6.109375 44.609375 11.75 
Q 48.6875 17.390625 48.6875 27.296875 
z
M 18.109375 46.390625 
Q 20.953125 51.265625 25.265625 53.625 
Q 29.59375 56 35.59375 56 
Q 45.5625 56 51.78125 48.09375 
Q 58.015625 40.1875 58.015625 27.296875 
Q 58.015625 14.40625 51.78125 6.484375 
Q 45.5625 -1.421875 35.59375 -1.421875 
Q 29.59375 -1.421875 25.265625 0.953125 
Q 20.953125 3.328125 18.109375 8.203125 
L 18.109375 0 
L 9.078125 0 
L 9.078125 75.984375 
L 18.109375 75.984375 
z
" id="DejaVuSans-98"/>
      <path d="M 18.109375 8.203125 
L 18.109375 -20.796875 
L 9.078125 -20.796875 
L 9.078125 54.6875 
L 18.109375 54.6875 
L 18.109375 46.390625 
Q 20.953125 51.265625 25.265625 53.625 
Q 29.59375 56 35.59375 56 
Q 45.5625 56 51.78125 48.09375 
Q 58.015625 40.1875 58.015625 27.296875 
Q 58.015625 14.40625 51.78125 6.484375 
Q 45.5625 -1.421875 35.59375 -1.421875 
Q 29.59375 -1.421875 25.265625 0.953125 
Q 20.953125 3.328125 18.109375 8.203125 
z
M 48.6875 27.296875 
Q 48.6875 37.203125 44.609375 42.84375 
Q 40.53125 48.484375 33.40625 48.484375 
Q 26.265625 48.484375 22.1875 42.84375 
Q 18.109375 37.203125 18.109375 27.296875 
Q 18.109375 17.390625 22.1875 11.75 
Q 26.265625 6.109375 33.40625 6.109375 
Q 40.53125 6.109375 44.609375 11.75 
Q 48.6875 17.390625 48.6875 27.296875 
z
" id="DejaVuSans-112"/>
      <path d="M 8.015625 75.875 
L 15.828125 75.875 
Q 23.140625 64.359375 26.78125 53.3125 
Q 30.421875 42.28125 30.421875 31.390625 
Q 30.421875 20.453125 26.78125 9.375 
Q 23.140625 -1.703125 15.828125 -13.1875 
L 8.015625 -13.1875 
Q 14.5 -2 17.703125 9.0625 
Q 20.90625 20.125 20.90625 31.390625 
Q 20.90625 42.671875 17.703125 53.65625 
Q 14.5 64.65625 8.015625 75.875 
z
" id="DejaVuSans-41"/>
     </defs>
     <g style="fill:#262626;" transform="translate(67.656562 251.36625)rotate(-90)scale(0.18 -0.18)">
      <use xlink:href="#DejaVuSans-68"/>
      <use x="77.001953" xlink:href="#DejaVuSans-101"/>
      <use x="138.525391" xlink:href="#DejaVuSans-108"/>
      <use x="166.308594" xlink:href="#DejaVuSans-101"/>
      <use x="227.832031" xlink:href="#DejaVuSans-116"/>
      <use x="267.041016" xlink:href="#DejaVuSans-105"/>
      <use x="294.824219" xlink:href="#DejaVuSans-111"/>
      <use x="356.005859" xlink:href="#DejaVuSans-110"/>
      <use x="419.384766" xlink:href="#DejaVuSans-32"/>
      <use x="451.171875" xlink:href="#DejaVuSans-76"/>
      <use x="506.869141" xlink:href="#DejaVuSans-101"/>
      <use x="568.392578" xlink:href="#DejaVuSans-110"/>
      <use x="631.771484" xlink:href="#DejaVuSans-103"/>
      <use x="695.248047" xlink:href="#DejaVuSans-116"/>
      <use x="734.457031" xlink:href="#DejaVuSans-104"/>
      <use x="797.835938" xlink:href="#DejaVuSans-32"/>
      <use x="829.623047" xlink:href="#DejaVuSans-40"/>
      <use x="868.636719" xlink:href="#DejaVuSans-98"/>
      <use x="932.113281" xlink:href="#DejaVuSans-112"/>
      <use x="995.589844" xlink:href="#DejaVuSans-41"/>
     </g>
    </g>
   </g>
   <g id="PathCollection_1">
    <defs>
     <path d="M -0 6.363961 
L 3.818377 0 
L 0 -6.363961 
L -3.818377 -0 
z
" id="mbe1d758535" style="stroke:#f0f0f0;stroke-width:1.5;"/>
    </defs>
    <g clip-path="url(#p1fb9d103c3)">
     <use style="fill:#f0f0f0;stroke:#f0f0f0;stroke-width:1.5;" x="152.841429" xlink:href="#mbe1d758535" y="274.721672"/>
     <use style="fill:#f0f0f0;stroke:#f0f0f0;stroke-width:1.5;" x="152.841429" xlink:href="#mbe1d758535" y="40.864342"/>
    </g>
   </g>
   <g id="PatchCollection_1">
    <path clip-path="url(#p1fb9d103c3)" d="M 152.785333 272.715153 
L 152.897525 272.715153 
L 152.897525 46.026069 
L 152.785333 46.026069 
z
" style="fill:#ffffff;stroke:#ffffff;stroke-width:1.5;"/>
    <path clip-path="url(#p1fb9d103c3)" d="M 152.729237 270.86256 
L 152.953621 270.86256 
L 152.953621 52.598694 
L 152.729237 52.598694 
z
" style="fill:#fdfdfd;stroke:#ffffff;stroke-width:1.5;"/>
    <path clip-path="url(#p1fb9d103c3)" d="M 152.617045 267.723433 
L 153.065812 267.723433 
L 153.065812 74.170183 
L 152.617045 74.170183 
z
" style="fill:#fcfcfc;stroke:#ffffff;stroke-width:1.5;"/>
    <path clip-path="url(#p1fb9d103c3)" d="M 152.392661 266.412577 
L 153.290196 266.412577 
L 153.290196 106.593179 
L 152.392661 106.593179 
z
" style="fill:#fafafa;stroke:#ffffff;stroke-width:1.5;"/>
    <path clip-path="url(#p1fb9d103c3)" d="M 151.943893 262.591245 
L 153.738964 262.591245 
L 153.738964 116.177894 
L 151.943893 116.177894 
z
" style="fill:#f8f8f8;stroke:#ffffff;stroke-width:1.5;"/>
    <path clip-path="url(#p1fb9d103c3)" d="M 151.046357 249.66447 
L 154.6365 249.66447 
L 154.6365 121.544439 
L 151.046357 121.544439 
z
" style="fill:#f7f7f7;stroke:#ffffff;stroke-width:1.5;"/>
    <path clip-path="url(#p1fb9d103c3)" d="M 149.251286 241.529391 
L 156.431571 241.529391 
L 156.431571 125.62037 
L 149.251286 125.62037 
z
" style="fill:#f5f5f5;stroke:#ffffff;stroke-width:1.5;"/>
    <path clip-path="url(#p1fb9d103c3)" d="M 145.661143 233.23973 
L 160.021714 233.23973 
L 160.021714 127.910927 
L 145.661143 127.910927 
z
" style="fill:#f3f3f3;stroke:#ffffff;stroke-width:1.5;"/>
    <path clip-path="url(#p1fb9d103c3)" d="M 138.480857 223.782694 
L 167.202 223.782694 
L 167.202 139.201013 
L 138.480857 139.201013 
z
" style="fill:#f2f2f2;stroke:#ffffff;stroke-width:1.5;"/>
    <path clip-path="url(#p1fb9d103c3)" d="M 124.120286 214.54647 
L 181.562571 214.54647 
L 181.562571 166.648496 
L 124.120286 166.648496 
z
" style="fill:#f0f0f0;stroke:#ffffff;stroke-width:1.5;"/>
   </g>
   <g id="PathCollection_2">
    <defs>
     <path d="M -0 6.363961 
L 3.818377 0 
L 0 -6.363961 
L -3.818377 -0 
z
" id="m2a36b75868" style="stroke:#d9d9d9;stroke-width:1.5;"/>
    </defs>
    <g clip-path="url(#p1fb9d103c3)">
     <use style="fill:#d9d9d9;stroke:#d9d9d9;stroke-width:1.5;" x="224.644286" xlink:href="#m2a36b75868" y="278.179334"/>
     <use style="fill:#d9d9d9;stroke:#d9d9d9;stroke-width:1.5;" x="224.644286" xlink:href="#m2a36b75868" y="96.156071"/>
    </g>
   </g>
   <g id="PatchCollection_2">
    <path clip-path="url(#p1fb9d103c3)" d="M 224.532094 272.509011 
L 224.756478 272.509011 
L 224.756478 101.481106 
L 224.532094 101.481106 
z
" style="fill:#ffffff;stroke:#ffffff;stroke-width:1.5;"/>
    <path clip-path="url(#p1fb9d103c3)" d="M 224.419902 267.919694 
L 224.86867 267.919694 
L 224.86867 108.32152 
L 224.419902 108.32152 
z
" style="fill:#fafafa;stroke:#ffffff;stroke-width:1.5;"/>
    <path clip-path="url(#p1fb9d103c3)" d="M 224.195518 263.507244 
L 225.093054 263.507244 
L 225.093054 111.69419 
L 224.195518 111.69419 
z
" style="fill:#f5f5f5;stroke:#ffffff;stroke-width:1.5;"/>
    <path clip-path="url(#p1fb9d103c3)" d="M 223.74675 249.553194 
L 225.541821 249.553194 
L 225.541821 116.876534 
L 223.74675 116.876534 
z
" style="fill:#f1f1f1;stroke:#ffffff;stroke-width:1.5;"/>
    <path clip-path="url(#p1fb9d103c3)" d="M 222.849214 247.645486 
L 226.439357 247.645486 
L 226.439357 124.251206 
L 222.849214 124.251206 
z
" style="fill:#ececec;stroke:#ffffff;stroke-width:1.5;"/>
    <path clip-path="url(#p1fb9d103c3)" d="M 221.054143 240.937731 
L 228.234429 240.937731 
L 228.234429 125.824448 
L 221.054143 125.824448 
z
" style="fill:#e7e7e7;stroke:#ffffff;stroke-width:1.5;"/>
    <path clip-path="url(#p1fb9d103c3)" d="M 217.464 232.809527 
L 231.824571 232.809527 
L 231.824571 128.227547 
L 217.464 128.227547 
z
" style="fill:#e2e2e2;stroke:#ffffff;stroke-width:1.5;"/>
    <path clip-path="url(#p1fb9d103c3)" d="M 210.283714 223.515166 
L 239.004857 223.515166 
L 239.004857 141.593412 
L 210.283714 141.593412 
z
" style="fill:#dddddd;stroke:#ffffff;stroke-width:1.5;"/>
    <path clip-path="url(#p1fb9d103c3)" d="M 195.923143 214.083701 
L 253.365429 214.083701 
L 253.365429 169.226973 
L 195.923143 169.226973 
z
" style="fill:#d9d9d9;stroke:#ffffff;stroke-width:1.5;"/>
   </g>
   <g id="PathCollection_3">
    <defs>
     <path d="M -0 6.363961 
L 3.818377 0 
L 0 -6.363961 
L -3.818377 -0 
z
" id="m248d10ef85" style="stroke:#bdbdbd;stroke-width:1.5;"/>
    </defs>
    <g clip-path="url(#p1fb9d103c3)">
     <use style="fill:#bdbdbd;stroke:#bdbdbd;stroke-width:1.5;" x="296.447143" xlink:href="#m248d10ef85" y="274.721672"/>
     <use style="fill:#bdbdbd;stroke:#bdbdbd;stroke-width:1.5;" x="296.447143" xlink:href="#m248d10ef85" y="40.864342"/>
    </g>
   </g>
   <g id="PatchCollection_3">
    <path clip-path="url(#p1fb9d103c3)" d="M 296.391047 274.29754 
L 296.503239 274.29754 
L 296.503239 46.15622 
L 296.391047 46.15622 
z
" style="fill:#ffffff;stroke:#ffffff;stroke-width:1.5;"/>
    <path clip-path="url(#p1fb9d103c3)" d="M 296.334951 273.880725 
L 296.559335 273.880725 
L 296.559335 52.941877 
L 296.334951 52.941877 
z
" style="fill:#f8f8f8;stroke:#ffffff;stroke-width:1.5;"/>
    <path clip-path="url(#p1fb9d103c3)" d="M 296.222759 272.510446 
L 296.671527 272.510446 
L 296.671527 74.608393 
L 296.222759 74.608393 
z
" style="fill:#f0f0f0;stroke:#ffffff;stroke-width:1.5;"/>
    <path clip-path="url(#p1fb9d103c3)" d="M 295.998375 264.262632 
L 296.895911 264.262632 
L 296.895911 106.691586 
L 295.998375 106.691586 
z
" style="fill:#e9e9e9;stroke:#ffffff;stroke-width:1.5;"/>
    <path clip-path="url(#p1fb9d103c3)" d="M 295.549607 253.070024 
L 297.344679 253.070024 
L 297.344679 116.26151 
L 295.549607 116.26151 
z
" style="fill:#e2e2e2;stroke:#ffffff;stroke-width:1.5;"/>
    <path clip-path="url(#p1fb9d103c3)" d="M 294.652071 248.719548 
L 298.242214 248.719548 
L 298.242214 121.781785 
L 294.652071 121.781785 
z
" style="fill:#dadada;stroke:#ffffff;stroke-width:1.5;"/>
    <path clip-path="url(#p1fb9d103c3)" d="M 292.857 242.0446 
L 300.037286 242.0446 
L 300.037286 125.655738 
L 292.857 125.655738 
z
" style="fill:#d3d3d3;stroke:#ffffff;stroke-width:1.5;"/>
    <path clip-path="url(#p1fb9d103c3)" d="M 289.266857 232.809527 
L 303.627429 232.809527 
L 303.627429 128.071512 
L 289.266857 128.071512 
z
" style="fill:#cbcbcb;stroke:#ffffff;stroke-width:1.5;"/>
    <path clip-path="url(#p1fb9d103c3)" d="M 282.086571 224.27683 
L 310.807714 224.27683 
L 310.807714 138.245852 
L 282.086571 138.245852 
z
" style="fill:#c4c4c4;stroke:#ffffff;stroke-width:1.5;"/>
    <path clip-path="url(#p1fb9d103c3)" d="M 267.726 214.413344 
L 325.168286 214.413344 
L 325.168286 168.068553 
L 267.726 168.068553 
z
" style="fill:#bdbdbd;stroke:#ffffff;stroke-width:1.5;"/>
   </g>
   <g id="PathCollection_4">
    <defs>
     <path d="M -0 6.363961 
L 3.818377 0 
L 0 -6.363961 
L -3.818377 -0 
z
" id="m3989a676fe" style="stroke:#959595;stroke-width:1.5;"/>
    </defs>
    <g clip-path="url(#p1fb9d103c3)">
     <use style="fill:#959595;stroke:#959595;stroke-width:1.5;" x="368.25" xlink:href="#m3989a676fe" y="263.365251"/>
     <use style="fill:#959595;stroke:#959595;stroke-width:1.5;" x="368.25" xlink:href="#m3989a676fe" y="96.156071"/>
    </g>
   </g>
   <g id="PatchCollection_4">
    <path clip-path="url(#p1fb9d103c3)" d="M 368.137808 257.294199 
L 368.362192 257.294199 
L 368.362192 99.213576 
L 368.137808 99.213576 
z
" style="fill:#ffffff;stroke:#ffffff;stroke-width:1.5;"/>
    <path clip-path="url(#p1fb9d103c3)" d="M 368.025616 253.568236 
L 368.474384 253.568236 
L 368.474384 102.618658 
L 368.025616 102.618658 
z
" style="fill:#f2f2f2;stroke:#ffffff;stroke-width:1.5;"/>
    <path clip-path="url(#p1fb9d103c3)" d="M 367.801232 253.377599 
L 368.698768 253.377599 
L 368.698768 108.379935 
L 367.801232 108.379935 
z
" style="fill:#e5e5e5;stroke:#ffffff;stroke-width:1.5;"/>
    <path clip-path="url(#p1fb9d103c3)" d="M 367.352464 250.596795 
L 369.147536 250.596795 
L 369.147536 113.946473 
L 367.352464 113.946473 
z
" style="fill:#d7d7d7;stroke:#ffffff;stroke-width:1.5;"/>
    <path clip-path="url(#p1fb9d103c3)" d="M 366.454929 247.645486 
L 370.045071 247.645486 
L 370.045071 122.738571 
L 366.454929 122.738571 
z
" style="fill:#cacaca;stroke:#ffffff;stroke-width:1.5;"/>
    <path clip-path="url(#p1fb9d103c3)" d="M 364.659857 239.998675 
L 371.840143 239.998675 
L 371.840143 125.740157 
L 364.659857 125.740157 
z
" style="fill:#bdbdbd;stroke:#ffffff;stroke-width:1.5;"/>
    <path clip-path="url(#p1fb9d103c3)" d="M 361.069714 233.312181 
L 375.430286 233.312181 
L 375.430286 128.235281 
L 361.069714 128.235281 
z
" style="fill:#b0b0b0;stroke:#ffffff;stroke-width:1.5;"/>
    <path clip-path="url(#p1fb9d103c3)" d="M 353.889429 224.27683 
L 382.610571 224.27683 
L 382.610571 143.535587 
L 353.889429 143.535587 
z
" style="fill:#a2a2a2;stroke:#ffffff;stroke-width:1.5;"/>
    <path clip-path="url(#p1fb9d103c3)" d="M 339.528857 214.018309 
L 396.971143 214.018309 
L 396.971143 174.390848 
L 339.528857 174.390848 
z
" style="fill:#959595;stroke:#ffffff;stroke-width:1.5;"/>
   </g>
   <g id="PathCollection_5">
    <defs>
     <path d="M -0 6.363961 
L 3.818377 0 
L 0 -6.363961 
L -3.818377 -0 
z
" id="mab98a7d66f" style="stroke:#727272;stroke-width:1.5;"/>
    </defs>
    <g clip-path="url(#p1fb9d103c3)">
     <use style="fill:#727272;stroke:#727272;stroke-width:1.5;" x="440.052857" xlink:href="#mab98a7d66f" y="263.365251"/>
     <use style="fill:#727272;stroke:#727272;stroke-width:1.5;" x="440.052857" xlink:href="#mab98a7d66f" y="40.864342"/>
    </g>
   </g>
   <g id="PatchCollection_5">
    <path clip-path="url(#p1fb9d103c3)" d="M 439.996761 260.383379 
L 440.108953 260.383379 
L 440.108953 46.957477 
L 439.996761 46.957477 
z
" style="fill:#ffffff;stroke:#ffffff;stroke-width:1.5;"/>
    <path clip-path="url(#p1fb9d103c3)" d="M 439.940665 257.729403 
L 440.165049 257.729403 
L 440.165049 55.124891 
L 439.940665 55.124891 
z
" style="fill:#f0f0f0;stroke:#ffffff;stroke-width:1.5;"/>
    <path clip-path="url(#p1fb9d103c3)" d="M 439.828473 253.466202 
L 440.277241 253.466202 
L 440.277241 86.868075 
L 439.828473 86.868075 
z
" style="fill:#e0e0e0;stroke:#ffffff;stroke-width:1.5;"/>
    <path clip-path="url(#p1fb9d103c3)" d="M 439.604089 251.446176 
L 440.501625 251.446176 
L 440.501625 96.672114 
L 439.604089 96.672114 
z
" style="fill:#d0d0d0;stroke:#ffffff;stroke-width:1.5;"/>
    <path clip-path="url(#p1fb9d103c3)" d="M 439.155321 249.27503 
L 440.950393 249.27503 
L 440.950393 106.796499 
L 439.155321 106.796499 
z
" style="fill:#c1c1c1;stroke:#ffffff;stroke-width:1.5;"/>
    <path clip-path="url(#p1fb9d103c3)" d="M 438.257786 247.645486 
L 441.847929 247.645486 
L 441.847929 117.166998 
L 438.257786 117.166998 
z
" style="fill:#b1b1b1;stroke:#ffffff;stroke-width:1.5;"/>
    <path clip-path="url(#p1fb9d103c3)" d="M 436.462714 239.198678 
L 443.643 239.198678 
L 443.643 124.843471 
L 436.462714 124.843471 
z
" style="fill:#a1a1a1;stroke:#ffffff;stroke-width:1.5;"/>
    <path clip-path="url(#p1fb9d103c3)" d="M 432.872571 232.178253 
L 447.233143 232.178253 
L 447.233143 127.881802 
L 432.872571 127.881802 
z
" style="fill:#919191;stroke:#ffffff;stroke-width:1.5;"/>
    <path clip-path="url(#p1fb9d103c3)" d="M 425.692286 223.298461 
L 454.413429 223.298461 
L 454.413429 134.534583 
L 425.692286 134.534583 
z
" style="fill:#828282;stroke:#ffffff;stroke-width:1.5;"/>
    <path clip-path="url(#p1fb9d103c3)" d="M 411.331714 213.501446 
L 468.774 213.501446 
L 468.774 168.185846 
L 411.331714 168.185846 
z
" style="fill:#727272;stroke:#ffffff;stroke-width:1.5;"/>
   </g>
   <g id="PathCollection_6">
    <defs>
     <path d="M -0 6.363961 
L 3.818377 0 
L 0 -6.363961 
L -3.818377 -0 
z
" id="m7d8f61e8c8" style="stroke:#515151;stroke-width:1.5;"/>
    </defs>
    <g clip-path="url(#p1fb9d103c3)">
     <use style="fill:#515151;stroke:#515151;stroke-width:1.5;" x="511.855714" xlink:href="#m7d8f61e8c8" y="273.162266"/>
     <use style="fill:#515151;stroke:#515151;stroke-width:1.5;" x="511.855714" xlink:href="#m7d8f61e8c8" y="96.156071"/>
    </g>
   </g>
   <g id="PatchCollection_6">
    <path clip-path="url(#p1fb9d103c3)" d="M 511.743522 267.582544 
L 511.967906 267.582544 
L 511.967906 102.610109 
L 511.743522 102.610109 
z
" style="fill:#ffffff;stroke:#ffffff;stroke-width:1.5;"/>
    <path clip-path="url(#p1fb9d103c3)" d="M 511.63133 264.197416 
L 512.080098 264.197416 
L 512.080098 108.349196 
L 511.63133 108.349196 
z
" style="fill:#e9e9e9;stroke:#ffffff;stroke-width:1.5;"/>
    <path clip-path="url(#p1fb9d103c3)" d="M 511.406946 261.547672 
L 512.304482 261.547672 
L 512.304482 109.624137 
L 511.406946 109.624137 
z
" style="fill:#d3d3d3;stroke:#ffffff;stroke-width:1.5;"/>
    <path clip-path="url(#p1fb9d103c3)" d="M 510.958179 253.070024 
L 512.75325 253.070024 
L 512.75325 116.712413 
L 510.958179 116.712413 
z
" style="fill:#bdbdbd;stroke:#ffffff;stroke-width:1.5;"/>
    <path clip-path="url(#p1fb9d103c3)" d="M 510.060643 248.719548 
L 513.650786 248.719548 
L 513.650786 124.80622 
L 510.060643 124.80622 
z
" style="fill:#a8a8a8;stroke:#ffffff;stroke-width:1.5;"/>
    <path clip-path="url(#p1fb9d103c3)" d="M 508.265571 241.631557 
L 515.445857 241.631557 
L 515.445857 125.828267 
L 508.265571 125.828267 
z
" style="fill:#929292;stroke:#ffffff;stroke-width:1.5;"/>
    <path clip-path="url(#p1fb9d103c3)" d="M 504.675429 233.974206 
L 519.036 233.974206 
L 519.036 128.378935 
L 504.675429 128.378935 
z
" style="fill:#7c7c7c;stroke:#ffffff;stroke-width:1.5;"/>
    <path clip-path="url(#p1fb9d103c3)" d="M 497.495143 223.880716 
L 526.216286 223.880716 
L 526.216286 143.486183 
L 497.495143 143.486183 
z
" style="fill:#666666;stroke:#ffffff;stroke-width:1.5;"/>
    <path clip-path="url(#p1fb9d103c3)" d="M 483.134571 213.758496 
L 540.576857 213.758496 
L 540.576857 174.409856 
L 483.134571 174.409856 
z
" style="fill:#515151;stroke:#ffffff;stroke-width:1.5;"/>
   </g>
   <g id="PathCollection_7">
    <defs>
     <path d="M -0 6.363961 
L 3.818377 0 
L 0 -6.363961 
L -3.818377 -0 
z
" id="md0b273b909" style="stroke:#242424;stroke-width:1.5;"/>
    </defs>
    <g clip-path="url(#p1fb9d103c3)">
     <use style="fill:#242424;stroke:#242424;stroke-width:1.5;" x="583.658571" xlink:href="#md0b273b909" y="278.179334"/>
     <use style="fill:#242424;stroke:#242424;stroke-width:1.5;" x="583.658571" xlink:href="#md0b273b909" y="96.156071"/>
    </g>
   </g>
   <g id="PatchCollection_7">
    <path clip-path="url(#p1fb9d103c3)" d="M 583.546379 270.712848 
L 583.770763 270.712848 
L 583.770763 98.646411 
L 583.546379 98.646411 
z
" style="fill:#ffffff;stroke:#ffffff;stroke-width:1.5;"/>
    <path clip-path="url(#p1fb9d103c3)" d="M 583.434188 265.017121 
L 583.882955 265.017121 
L 583.882955 101.423232 
L 583.434188 101.423232 
z
" style="fill:#e4e4e4;stroke:#ffffff;stroke-width:1.5;"/>
    <path clip-path="url(#p1fb9d103c3)" d="M 583.209804 263.48352 
L 584.107339 263.48352 
L 584.107339 107.432014 
L 583.209804 107.432014 
z
" style="fill:#c8c8c8;stroke:#ffffff;stroke-width:1.5;"/>
    <path clip-path="url(#p1fb9d103c3)" d="M 582.761036 250.666447 
L 584.556107 250.666447 
L 584.556107 114.08091 
L 582.761036 114.08091 
z
" style="fill:#adadad;stroke:#ffffff;stroke-width:1.5;"/>
    <path clip-path="url(#p1fb9d103c3)" d="M 581.8635 247.645486 
L 585.453643 247.645486 
L 585.453643 122.95878 
L 581.8635 122.95878 
z
" style="fill:#919191;stroke:#ffffff;stroke-width:1.5;"/>
    <path clip-path="url(#p1fb9d103c3)" d="M 580.068429 241.175171 
L 587.248714 241.175171 
L 587.248714 125.744809 
L 580.068429 125.744809 
z
" style="fill:#767676;stroke:#ffffff;stroke-width:1.5;"/>
    <path clip-path="url(#p1fb9d103c3)" d="M 576.478286 232.809527 
L 590.838857 232.809527 
L 590.838857 127.767951 
L 576.478286 127.767951 
z
" style="fill:#5a5a5a;stroke:#ffffff;stroke-width:1.5;"/>
    <path clip-path="url(#p1fb9d103c3)" d="M 569.298 224.27683 
L 598.019143 224.27683 
L 598.019143 132.897341 
L 569.298 132.897341 
z
" style="fill:#3f3f3f;stroke:#ffffff;stroke-width:1.5;"/>
    <path clip-path="url(#p1fb9d103c3)" d="M 554.937429 214.018309 
L 612.379714 214.018309 
L 612.379714 167.150156 
L 554.937429 167.150156 
z
" style="fill:#242424;stroke:#ffffff;stroke-width:1.5;"/>
   </g>
   <g id="line2d_1">
    <path clip-path="url(#p1fb9d103c3)" d="M 124.120286 197.139946 
L 181.562571 197.139946 
" style="fill:none;stroke:#262626;stroke-linecap:round;stroke-opacity:0.45;stroke-width:2.25;"/>
   </g>
   <g id="line2d_2">
    <path clip-path="url(#p1fb9d103c3)" d="M 195.923143 195.507578 
L 253.365429 195.507578 
" style="fill:none;stroke:#262626;stroke-linecap:round;stroke-opacity:0.45;stroke-width:2.25;"/>
   </g>
   <g id="line2d_3">
    <path clip-path="url(#p1fb9d103c3)" d="M 267.726 197.010388 
L 325.168286 197.010388 
" style="fill:none;stroke:#262626;stroke-linecap:round;stroke-opacity:0.45;stroke-width:2.25;"/>
   </g>
   <g id="line2d_4">
    <path clip-path="url(#p1fb9d103c3)" d="M 339.528857 199.67128 
L 396.971143 199.67128 
" style="fill:none;stroke:#262626;stroke-linecap:round;stroke-opacity:0.45;stroke-width:2.25;"/>
   </g>
   <g id="line2d_5">
    <path clip-path="url(#p1fb9d103c3)" d="M 411.331714 195.507578 
L 468.774 195.507578 
" style="fill:none;stroke:#262626;stroke-linecap:round;stroke-opacity:0.45;stroke-width:2.25;"/>
   </g>
   <g id="line2d_6">
    <path clip-path="url(#p1fb9d103c3)" d="M 483.134571 198.682037 
L 540.576857 198.682037 
" style="fill:none;stroke:#262626;stroke-linecap:round;stroke-opacity:0.45;stroke-width:2.25;"/>
   </g>
   <g id="line2d_7">
    <path clip-path="url(#p1fb9d103c3)" d="M 554.937429 195.326132 
L 612.379714 195.326132 
" style="fill:none;stroke:#262626;stroke-linecap:round;stroke-opacity:0.45;stroke-width:2.25;"/>
   </g>
   <g id="patch_3">
    <path d="M 116.94 288.06 
L 116.94 28.44 
" style="fill:none;stroke:#262626;stroke-linecap:square;stroke-linejoin:miter;stroke-width:1.875;"/>
   </g>
   <g id="patch_4">
    <path d="M 116.94 288.06 
L 619.56 288.06 
" style="fill:none;stroke:#262626;stroke-linecap:square;stroke-linejoin:miter;stroke-width:1.875;"/>
   </g>
  </g>
 </g>
 <defs>
  <clipPath id="p1fb9d103c3">
   <rect height="259.62" width="502.62" x="116.94" y="28.44"/>
  </clipPath>
 </defs>
</svg>
