<?xml version="1.0" encoding="utf-8" standalone="no"?>
<!DOCTYPE svg PUBLIC "-//W3C//DTD SVG 1.1//EN"
  "http://www.w3.org/Graphics/SVG/1.1/DTD/svg11.dtd">
<!-- Created with matplotlib (https://matplotlib.org/) -->
<svg height="360pt" version="1.1" viewBox="0 0 648 360" width="648pt" xmlns="http://www.w3.org/2000/svg" xmlns:xlink="http://www.w3.org/1999/xlink">
 <defs>
  <style type="text/css">
*{stroke-linecap:butt;stroke-linejoin:round;}
  </style>
 </defs>
 <g id="figure_1">
  <g id="patch_1">
   <path d="M 0 360 
L 648 360 
L 648 0 
L 0 0 
z
" style="fill:#ffffff;"/>
  </g>
  <g id="axes_1">
   <g id="patch_2">
    <path d="M 108.815 290.856875 
L 619.56 290.856875 
L 619.56 28.44 
L 108.815 28.44 
z
" style="fill:#ffffff;"/>
   </g>
   <g id="matplotlib.axis_1">
    <g id="xtick_1">
     <g id="text_1">
      <!-- A_J -->
      <defs>
       <path d="M -0.140625 0 
L 27.34375 71.578125 
L 37.546875 71.578125 
L 66.84375 0 
L 56.0625 0 
L 47.703125 21.6875 
L 17.78125 21.6875 
L 9.90625 0 
z
M 20.515625 29.390625 
L 44.78125 29.390625 
L 37.3125 49.21875 
Q 33.890625 58.25 32.234375 64.0625 
Q 30.859375 57.171875 28.375 50.390625 
z
" id="ArialMT-65"/>
       <path d="M -1.515625 -19.875 
L -1.515625 -13.53125 
L 56.734375 -13.53125 
L 56.734375 -19.875 
z
" id="ArialMT-95"/>
       <path d="M 2.875 20.3125 
L 11.421875 21.484375 
Q 11.765625 13.28125 14.5 10.25 
Q 17.234375 7.234375 22.078125 7.234375 
Q 25.640625 7.234375 28.21875 8.859375 
Q 30.8125 10.5 31.78125 13.296875 
Q 32.765625 16.109375 32.765625 22.265625 
L 32.765625 71.578125 
L 42.234375 71.578125 
L 42.234375 22.796875 
Q 42.234375 13.8125 40.0625 8.875 
Q 37.890625 3.953125 33.171875 1.359375 
Q 28.46875 -1.21875 22.125 -1.21875 
Q 12.703125 -1.21875 7.6875 4.203125 
Q 2.6875 9.625 2.875 20.3125 
z
" id="ArialMT-74"/>
      </defs>
      <g style="fill:#262626;" transform="translate(149.562294 331.788437)rotate(-90)scale(0.165 -0.165)">
       <use xlink:href="#ArialMT-65"/>
       <use x="66.699219" xlink:href="#ArialMT-95"/>
       <use x="122.314453" xlink:href="#ArialMT-74"/>
      </g>
     </g>
    </g>
    <g id="xtick_2">
     <g id="text_2">
      <!-- AKR_J -->
      <defs>
       <path d="M 7.328125 0 
L 7.328125 71.578125 
L 16.796875 71.578125 
L 16.796875 36.078125 
L 52.34375 71.578125 
L 65.1875 71.578125 
L 35.15625 42.578125 
L 66.5 0 
L 54 0 
L 28.515625 36.234375 
L 16.796875 24.8125 
L 16.796875 0 
z
" id="ArialMT-75"/>
       <path d="M 7.859375 0 
L 7.859375 71.578125 
L 39.59375 71.578125 
Q 49.171875 71.578125 54.140625 69.640625 
Q 59.125 67.71875 62.109375 62.828125 
Q 65.09375 57.953125 65.09375 52.046875 
Q 65.09375 44.4375 60.15625 39.203125 
Q 55.21875 33.984375 44.921875 32.5625 
Q 48.6875 30.765625 50.640625 29 
Q 54.78125 25.203125 58.5 19.484375 
L 70.953125 0 
L 59.03125 0 
L 49.5625 14.890625 
Q 45.40625 21.34375 42.71875 24.75 
Q 40.046875 28.171875 37.921875 29.53125 
Q 35.796875 30.90625 33.59375 31.453125 
Q 31.984375 31.78125 28.328125 31.78125 
L 17.328125 31.78125 
L 17.328125 0 
z
M 17.328125 39.984375 
L 37.703125 39.984375 
Q 44.1875 39.984375 47.84375 41.328125 
Q 51.515625 42.671875 53.421875 45.625 
Q 55.328125 48.578125 55.328125 52.046875 
Q 55.328125 57.125 51.640625 60.390625 
Q 47.953125 63.671875 39.984375 63.671875 
L 17.328125 63.671875 
z
" id="ArialMT-82"/>
      </defs>
      <g style="fill:#262626;" transform="translate(222.525865 354.710547)rotate(-90)scale(0.165 -0.165)">
       <use xlink:href="#ArialMT-65"/>
       <use x="66.699219" xlink:href="#ArialMT-75"/>
       <use x="133.398438" xlink:href="#ArialMT-82"/>
       <use x="205.615234" xlink:href="#ArialMT-95"/>
       <use x="261.230469" xlink:href="#ArialMT-74"/>
      </g>
     </g>
    </g>
    <g id="xtick_3">
     <g id="text_3">
      <!-- BALB_CJ -->
      <defs>
       <path d="M 7.328125 0 
L 7.328125 71.578125 
L 34.1875 71.578125 
Q 42.390625 71.578125 47.34375 69.40625 
Q 52.296875 67.234375 55.09375 62.71875 
Q 57.90625 58.203125 57.90625 53.265625 
Q 57.90625 48.6875 55.421875 44.625 
Q 52.9375 40.578125 47.90625 38.09375 
Q 54.390625 36.1875 57.875 31.59375 
Q 61.375 27 61.375 20.75 
Q 61.375 15.71875 59.25 11.390625 
Q 57.125 7.078125 54 4.734375 
Q 50.875 2.390625 46.15625 1.1875 
Q 41.453125 0 34.625 0 
z
M 16.796875 41.5 
L 32.28125 41.5 
Q 38.578125 41.5 41.3125 42.328125 
Q 44.921875 43.40625 46.75 45.890625 
Q 48.578125 48.390625 48.578125 52.15625 
Q 48.578125 55.71875 46.875 58.421875 
Q 45.171875 61.140625 41.984375 62.140625 
Q 38.8125 63.140625 31.109375 63.140625 
L 16.796875 63.140625 
z
M 16.796875 8.453125 
L 34.625 8.453125 
Q 39.203125 8.453125 41.0625 8.796875 
Q 44.34375 9.375 46.53125 10.734375 
Q 48.734375 12.109375 50.140625 14.71875 
Q 51.5625 17.328125 51.5625 20.75 
Q 51.5625 24.75 49.515625 27.703125 
Q 47.46875 30.671875 43.828125 31.859375 
Q 40.1875 33.0625 33.34375 33.0625 
L 16.796875 33.0625 
z
" id="ArialMT-66"/>
       <path d="M 7.328125 0 
L 7.328125 71.578125 
L 16.796875 71.578125 
L 16.796875 8.453125 
L 52.046875 8.453125 
L 52.046875 0 
z
" id="ArialMT-76"/>
       <path d="M 58.796875 25.09375 
L 68.265625 22.703125 
Q 65.28125 11.03125 57.546875 4.90625 
Q 49.8125 -1.21875 38.625 -1.21875 
Q 27.046875 -1.21875 19.796875 3.484375 
Q 12.546875 8.203125 8.765625 17.140625 
Q 4.984375 26.078125 4.984375 36.328125 
Q 4.984375 47.515625 9.25 55.828125 
Q 13.53125 64.15625 21.40625 68.46875 
Q 29.296875 72.796875 38.765625 72.796875 
Q 49.515625 72.796875 56.828125 67.328125 
Q 64.15625 61.859375 67.046875 51.953125 
L 57.71875 49.75 
Q 55.21875 57.5625 50.484375 61.125 
Q 45.75 64.703125 38.578125 64.703125 
Q 30.328125 64.703125 24.78125 60.734375 
Q 19.234375 56.78125 16.984375 50.109375 
Q 14.75 43.453125 14.75 36.375 
Q 14.75 27.25 17.40625 20.4375 
Q 20.0625 13.625 25.671875 10.25 
Q 31.296875 6.890625 37.84375 6.890625 
Q 45.796875 6.890625 51.3125 11.46875 
Q 56.84375 16.0625 58.796875 25.09375 
z
" id="ArialMT-67"/>
      </defs>
      <g style="fill:#262626;" transform="translate(295.589983 374.892109)rotate(-90)scale(0.165 -0.165)">
       <use xlink:href="#ArialMT-66"/>
       <use x="66.699219" xlink:href="#ArialMT-65"/>
       <use x="133.398438" xlink:href="#ArialMT-76"/>
       <use x="189.013672" xlink:href="#ArialMT-66"/>
       <use x="255.712891" xlink:href="#ArialMT-95"/>
       <use x="311.328125" xlink:href="#ArialMT-67"/>
       <use x="383.544922" xlink:href="#ArialMT-74"/>
      </g>
     </g>
    </g>
    <g id="xtick_4">
     <g id="text_4">
      <!-- CBA_J -->
      <g style="fill:#262626;" transform="translate(368.553555 354.710547)rotate(-90)scale(0.165 -0.165)">
       <use xlink:href="#ArialMT-67"/>
       <use x="72.216797" xlink:href="#ArialMT-66"/>
       <use x="138.916016" xlink:href="#ArialMT-65"/>
       <use x="205.615234" xlink:href="#ArialMT-95"/>
       <use x="261.230469" xlink:href="#ArialMT-74"/>
      </g>
     </g>
    </g>
    <g id="xtick_5">
     <g id="text_5">
      <!-- C3H_HeJ -->
      <defs>
       <path d="M 4.203125 18.890625 
L 12.984375 20.0625 
Q 14.5 12.59375 18.140625 9.296875 
Q 21.78125 6 27 6 
Q 33.203125 6 37.46875 10.296875 
Q 41.75 14.59375 41.75 20.953125 
Q 41.75 27 37.796875 30.921875 
Q 33.84375 34.859375 27.734375 34.859375 
Q 25.25 34.859375 21.53125 33.890625 
L 22.515625 41.609375 
Q 23.390625 41.5 23.921875 41.5 
Q 29.546875 41.5 34.03125 44.421875 
Q 38.53125 47.359375 38.53125 53.46875 
Q 38.53125 58.296875 35.25 61.46875 
Q 31.984375 64.65625 26.8125 64.65625 
Q 21.6875 64.65625 18.265625 61.421875 
Q 14.84375 58.203125 13.875 51.765625 
L 5.078125 53.328125 
Q 6.6875 62.15625 12.390625 67.015625 
Q 18.109375 71.875 26.609375 71.875 
Q 32.46875 71.875 37.390625 69.359375 
Q 42.328125 66.84375 44.9375 62.5 
Q 47.5625 58.15625 47.5625 53.265625 
Q 47.5625 48.640625 45.0625 44.828125 
Q 42.578125 41.015625 37.703125 38.765625 
Q 44.046875 37.3125 47.5625 32.6875 
Q 51.078125 28.078125 51.078125 21.140625 
Q 51.078125 11.765625 44.234375 5.25 
Q 37.40625 -1.265625 26.953125 -1.265625 
Q 17.53125 -1.265625 11.296875 4.34375 
Q 5.078125 9.96875 4.203125 18.890625 
z
" id="ArialMT-51"/>
       <path d="M 8.015625 0 
L 8.015625 71.578125 
L 17.484375 71.578125 
L 17.484375 42.1875 
L 54.6875 42.1875 
L 54.6875 71.578125 
L 64.15625 71.578125 
L 64.15625 0 
L 54.6875 0 
L 54.6875 33.734375 
L 17.484375 33.734375 
L 17.484375 0 
z
" id="ArialMT-72"/>
       <path d="M 42.09375 16.703125 
L 51.171875 15.578125 
Q 49.03125 7.625 43.21875 3.21875 
Q 37.40625 -1.171875 28.375 -1.171875 
Q 17 -1.171875 10.328125 5.828125 
Q 3.65625 12.84375 3.65625 25.484375 
Q 3.65625 38.578125 10.390625 45.796875 
Q 17.140625 53.03125 27.875 53.03125 
Q 38.28125 53.03125 44.875 45.953125 
Q 51.46875 38.875 51.46875 26.03125 
Q 51.46875 25.25 51.421875 23.6875 
L 12.75 23.6875 
Q 13.234375 15.140625 17.578125 10.59375 
Q 21.921875 6.0625 28.421875 6.0625 
Q 33.25 6.0625 36.671875 8.59375 
Q 40.09375 11.140625 42.09375 16.703125 
z
M 13.234375 30.90625 
L 42.1875 30.90625 
Q 41.609375 37.453125 38.875 40.71875 
Q 34.671875 45.796875 27.984375 45.796875 
Q 21.921875 45.796875 17.796875 41.75 
Q 13.671875 37.703125 13.234375 30.90625 
z
" id="ArialMT-101"/>
      </defs>
      <g style="fill:#262626;" transform="translate(441.517126 374.881797)rotate(-90)scale(0.165 -0.165)">
       <use xlink:href="#ArialMT-67"/>
       <use x="72.216797" xlink:href="#ArialMT-51"/>
       <use x="127.832031" xlink:href="#ArialMT-72"/>
       <use x="200.048828" xlink:href="#ArialMT-95"/>
       <use x="255.664062" xlink:href="#ArialMT-72"/>
       <use x="327.880859" xlink:href="#ArialMT-101"/>
       <use x="383.496094" xlink:href="#ArialMT-74"/>
      </g>
     </g>
    </g>
    <g id="xtick_6">
     <g id="text_6">
      <!-- DBA_2J -->
      <defs>
       <path d="M 7.71875 0 
L 7.71875 71.578125 
L 32.375 71.578125 
Q 40.71875 71.578125 45.125 70.5625 
Q 51.265625 69.140625 55.609375 65.4375 
Q 61.28125 60.640625 64.078125 53.1875 
Q 66.890625 45.75 66.890625 36.1875 
Q 66.890625 28.03125 64.984375 21.734375 
Q 63.09375 15.4375 60.109375 11.296875 
Q 57.125 7.171875 53.578125 4.796875 
Q 50.046875 2.4375 45.046875 1.21875 
Q 40.046875 0 33.546875 0 
z
M 17.1875 8.453125 
L 32.46875 8.453125 
Q 39.546875 8.453125 43.578125 9.765625 
Q 47.609375 11.078125 50 13.484375 
Q 53.375 16.84375 55.25 22.53125 
Q 57.125 28.21875 57.125 36.328125 
Q 57.125 47.5625 53.4375 53.59375 
Q 49.75 59.625 44.484375 61.671875 
Q 40.671875 63.140625 32.234375 63.140625 
L 17.1875 63.140625 
z
" id="ArialMT-68"/>
       <path d="M 50.34375 8.453125 
L 50.34375 0 
L 3.03125 0 
Q 2.9375 3.171875 4.046875 6.109375 
Q 5.859375 10.9375 9.828125 15.625 
Q 13.8125 20.3125 21.34375 26.46875 
Q 33.015625 36.03125 37.109375 41.625 
Q 41.21875 47.21875 41.21875 52.203125 
Q 41.21875 57.421875 37.46875 61 
Q 33.734375 64.59375 27.734375 64.59375 
Q 21.390625 64.59375 17.578125 60.78125 
Q 13.765625 56.984375 13.71875 50.25 
L 4.6875 51.171875 
Q 5.609375 61.28125 11.65625 66.578125 
Q 17.71875 71.875 27.9375 71.875 
Q 38.234375 71.875 44.234375 66.15625 
Q 50.25 60.453125 50.25 52 
Q 50.25 47.703125 48.484375 43.546875 
Q 46.734375 39.40625 42.65625 34.8125 
Q 38.578125 30.21875 29.109375 22.21875 
Q 21.1875 15.578125 18.9375 13.203125 
Q 16.703125 10.84375 15.234375 8.453125 
z
" id="ArialMT-50"/>
      </defs>
      <g style="fill:#262626;" transform="translate(514.404643 363.886094)rotate(-90)scale(0.165 -0.165)">
       <use xlink:href="#ArialMT-68"/>
       <use x="72.216797" xlink:href="#ArialMT-66"/>
       <use x="138.916016" xlink:href="#ArialMT-65"/>
       <use x="205.615234" xlink:href="#ArialMT-95"/>
       <use x="261.230469" xlink:href="#ArialMT-50"/>
       <use x="316.845703" xlink:href="#ArialMT-74"/>
      </g>
     </g>
    </g>
    <g id="xtick_7">
     <g id="text_7">
      <!-- LP_J -->
      <defs>
       <path d="M 7.71875 0 
L 7.71875 71.578125 
L 34.71875 71.578125 
Q 41.84375 71.578125 45.609375 70.90625 
Q 50.875 70.015625 54.4375 67.546875 
Q 58.015625 65.09375 60.1875 60.640625 
Q 62.359375 56.203125 62.359375 50.875 
Q 62.359375 41.75 56.546875 35.421875 
Q 50.734375 29.109375 35.546875 29.109375 
L 17.1875 29.109375 
L 17.1875 0 
z
M 17.1875 37.546875 
L 35.6875 37.546875 
Q 44.875 37.546875 48.734375 40.96875 
Q 52.59375 44.390625 52.59375 50.59375 
Q 52.59375 55.078125 50.3125 58.265625 
Q 48.046875 61.46875 44.34375 62.5 
Q 41.9375 63.140625 35.5 63.140625 
L 17.1875 63.140625 
z
" id="ArialMT-80"/>
      </defs>
      <g style="fill:#262626;" transform="translate(587.343722 340.963984)rotate(-90)scale(0.165 -0.165)">
       <use xlink:href="#ArialMT-76"/>
       <use x="55.615234" xlink:href="#ArialMT-80"/>
       <use x="122.314453" xlink:href="#ArialMT-95"/>
       <use x="177.929688" xlink:href="#ArialMT-74"/>
      </g>
     </g>
    </g>
   </g>
   <g id="matplotlib.axis_2">
    <g id="ytick_1">
     <g id="text_8">
      <!-- $\mathdefault{10^{1}}$ -->
      <defs>
       <path d="M 37.25 0 
L 28.46875 0 
L 28.46875 56 
Q 25.296875 52.984375 20.140625 49.953125 
Q 14.984375 46.921875 10.890625 45.40625 
L 10.890625 53.90625 
Q 18.265625 57.375 23.78125 62.296875 
Q 29.296875 67.234375 31.59375 71.875 
L 37.25 71.875 
z
" id="ArialMT-49"/>
       <path d="M 4.15625 35.296875 
Q 4.15625 48 6.765625 55.734375 
Q 9.375 63.484375 14.515625 67.671875 
Q 19.671875 71.875 27.484375 71.875 
Q 33.25 71.875 37.59375 69.546875 
Q 41.9375 67.234375 44.765625 62.859375 
Q 47.609375 58.5 49.21875 52.21875 
Q 50.828125 45.953125 50.828125 35.296875 
Q 50.828125 22.703125 48.234375 14.96875 
Q 45.65625 7.234375 40.5 3 
Q 35.359375 -1.21875 27.484375 -1.21875 
Q 17.140625 -1.21875 11.234375 6.203125 
Q 4.15625 15.140625 4.15625 35.296875 
z
M 13.1875 35.296875 
Q 13.1875 17.671875 17.3125 11.828125 
Q 21.4375 6 27.484375 6 
Q 33.546875 6 37.671875 11.859375 
Q 41.796875 17.71875 41.796875 35.296875 
Q 41.796875 52.984375 37.671875 58.78125 
Q 33.546875 64.59375 27.390625 64.59375 
Q 21.34375 64.59375 17.71875 59.46875 
Q 13.1875 52.9375 13.1875 35.296875 
z
" id="ArialMT-48"/>
      </defs>
      <g style="fill:#262626;" transform="translate(70.41 295.802965)scale(0.165 -0.165)">
       <use transform="translate(0 0.99375)" xlink:href="#ArialMT-49"/>
       <use transform="translate(55.615234 0.99375)" xlink:href="#ArialMT-48"/>
       <use transform="translate(112.972813 70.6875)scale(0.7)" xlink:href="#ArialMT-49"/>
      </g>
     </g>
    </g>
    <g id="ytick_2">
     <g id="text_9">
      <!-- $\mathdefault{10^{2}}$ -->
      <g style="fill:#262626;" transform="translate(70.41 239.561982)scale(0.165 -0.165)">
       <use transform="translate(0 0.99375)" xlink:href="#ArialMT-49"/>
       <use transform="translate(55.615234 0.99375)" xlink:href="#ArialMT-48"/>
       <use transform="translate(112.972813 70.6875)scale(0.7)" xlink:href="#ArialMT-50"/>
      </g>
     </g>
    </g>
    <g id="ytick_3">
     <g id="text_10">
      <!-- $\mathdefault{10^{3}}$ -->
      <g style="fill:#262626;" transform="translate(70.41 183.320999)scale(0.165 -0.165)">
       <use transform="translate(0 0.99375)" xlink:href="#ArialMT-49"/>
       <use transform="translate(55.615234 0.99375)" xlink:href="#ArialMT-48"/>
       <use transform="translate(112.972813 70.6875)scale(0.7)" xlink:href="#ArialMT-51"/>
      </g>
     </g>
    </g>
    <g id="ytick_4">
     <g id="text_11">
      <!-- $\mathdefault{10^{4}}$ -->
      <defs>
       <path d="M 32.328125 0 
L 32.328125 17.140625 
L 1.265625 17.140625 
L 1.265625 25.203125 
L 33.9375 71.578125 
L 41.109375 71.578125 
L 41.109375 25.203125 
L 50.78125 25.203125 
L 50.78125 17.140625 
L 41.109375 17.140625 
L 41.109375 0 
z
M 32.328125 25.203125 
L 32.328125 57.46875 
L 9.90625 25.203125 
z
" id="ArialMT-52"/>
      </defs>
      <g style="fill:#262626;" transform="translate(70.41 126.997516)scale(0.165 -0.165)">
       <use transform="translate(0 0.201563)" xlink:href="#ArialMT-49"/>
       <use transform="translate(55.615234 0.201563)" xlink:href="#ArialMT-48"/>
       <use transform="translate(112.972813 69.895313)scale(0.7)" xlink:href="#ArialMT-52"/>
      </g>
     </g>
    </g>
    <g id="ytick_5">
     <g id="text_12">
      <!-- $\mathdefault{10^{5}}$ -->
      <defs>
       <path d="M 4.15625 18.75 
L 13.375 19.53125 
Q 14.40625 12.796875 18.140625 9.390625 
Q 21.875 6 27.15625 6 
Q 33.5 6 37.890625 10.78125 
Q 42.28125 15.578125 42.28125 23.484375 
Q 42.28125 31 38.0625 35.34375 
Q 33.84375 39.703125 27 39.703125 
Q 22.75 39.703125 19.328125 37.765625 
Q 15.921875 35.84375 13.96875 32.765625 
L 5.71875 33.84375 
L 12.640625 70.609375 
L 48.25 70.609375 
L 48.25 62.203125 
L 19.671875 62.203125 
L 15.828125 42.96875 
Q 22.265625 47.46875 29.34375 47.46875 
Q 38.71875 47.46875 45.15625 40.96875 
Q 51.609375 34.46875 51.609375 24.265625 
Q 51.609375 14.546875 45.953125 7.46875 
Q 39.0625 -1.21875 27.15625 -1.21875 
Q 17.390625 -1.21875 11.203125 4.25 
Q 5.03125 9.71875 4.15625 18.75 
z
" id="ArialMT-53"/>
      </defs>
      <g style="fill:#262626;" transform="translate(70.41 70.756533)scale(0.165 -0.165)">
       <use transform="translate(0 0.879688)" xlink:href="#ArialMT-49"/>
       <use transform="translate(55.615234 0.879688)" xlink:href="#ArialMT-48"/>
       <use transform="translate(112.972813 70.573438)scale(0.7)" xlink:href="#ArialMT-53"/>
      </g>
     </g>
    </g>
    <g id="ytick_6"/>
    <g id="ytick_7"/>
    <g id="ytick_8"/>
    <g id="ytick_9"/>
    <g id="ytick_10"/>
    <g id="ytick_11"/>
    <g id="ytick_12"/>
    <g id="ytick_13"/>
    <g id="ytick_14"/>
    <g id="ytick_15"/>
    <g id="ytick_16"/>
    <g id="ytick_17"/>
    <g id="ytick_18"/>
    <g id="ytick_19"/>
    <g id="ytick_20"/>
    <g id="ytick_21"/>
    <g id="ytick_22"/>
    <g id="ytick_23"/>
    <g id="ytick_24"/>
    <g id="ytick_25"/>
    <g id="ytick_26"/>
    <g id="ytick_27"/>
    <g id="ytick_28"/>
    <g id="ytick_29"/>
    <g id="ytick_30"/>
    <g id="ytick_31"/>
    <g id="ytick_32"/>
    <g id="ytick_33"/>
    <g id="ytick_34"/>
    <g id="ytick_35"/>
    <g id="ytick_36"/>
    <g id="ytick_37"/>
    <g id="ytick_38"/>
    <g id="ytick_39"/>
    <g id="ytick_40"/>
    <g id="ytick_41"/>
    <g id="text_13">
     <!-- Deletion Length (bp) -->
     <defs>
      <path d="M 6.390625 0 
L 6.390625 71.578125 
L 15.1875 71.578125 
L 15.1875 0 
z
" id="ArialMT-108"/>
      <path d="M 25.78125 7.859375 
L 27.046875 0.09375 
Q 23.34375 -0.6875 20.40625 -0.6875 
Q 15.625 -0.6875 12.984375 0.828125 
Q 10.359375 2.34375 9.28125 4.8125 
Q 8.203125 7.28125 8.203125 15.1875 
L 8.203125 45.015625 
L 1.765625 45.015625 
L 1.765625 51.859375 
L 8.203125 51.859375 
L 8.203125 64.703125 
L 16.9375 69.96875 
L 16.9375 51.859375 
L 25.78125 51.859375 
L 25.78125 45.015625 
L 16.9375 45.015625 
L 16.9375 14.703125 
Q 16.9375 10.9375 17.40625 9.859375 
Q 17.875 8.796875 18.921875 8.15625 
Q 19.96875 7.515625 21.921875 7.515625 
Q 23.390625 7.515625 25.78125 7.859375 
z
" id="ArialMT-116"/>
      <path d="M 6.640625 61.46875 
L 6.640625 71.578125 
L 15.4375 71.578125 
L 15.4375 61.46875 
z
M 6.640625 0 
L 6.640625 51.859375 
L 15.4375 51.859375 
L 15.4375 0 
z
" id="ArialMT-105"/>
      <path d="M 3.328125 25.921875 
Q 3.328125 40.328125 11.328125 47.265625 
Q 18.015625 53.03125 27.640625 53.03125 
Q 38.328125 53.03125 45.109375 46.015625 
Q 51.90625 39.015625 51.90625 26.65625 
Q 51.90625 16.65625 48.90625 10.90625 
Q 45.90625 5.171875 40.15625 2 
Q 34.421875 -1.171875 27.640625 -1.171875 
Q 16.75 -1.171875 10.03125 5.8125 
Q 3.328125 12.796875 3.328125 25.921875 
z
M 12.359375 25.921875 
Q 12.359375 15.96875 16.703125 11.015625 
Q 21.046875 6.0625 27.640625 6.0625 
Q 34.1875 6.0625 38.53125 11.03125 
Q 42.875 16.015625 42.875 26.21875 
Q 42.875 35.84375 38.5 40.796875 
Q 34.125 45.75 27.640625 45.75 
Q 21.046875 45.75 16.703125 40.8125 
Q 12.359375 35.890625 12.359375 25.921875 
z
" id="ArialMT-111"/>
      <path d="M 6.59375 0 
L 6.59375 51.859375 
L 14.5 51.859375 
L 14.5 44.484375 
Q 20.21875 53.03125 31 53.03125 
Q 35.6875 53.03125 39.625 51.34375 
Q 43.5625 49.65625 45.515625 46.921875 
Q 47.46875 44.1875 48.25 40.4375 
Q 48.734375 37.984375 48.734375 31.890625 
L 48.734375 0 
L 39.9375 0 
L 39.9375 31.546875 
Q 39.9375 36.921875 38.90625 39.578125 
Q 37.890625 42.234375 35.28125 43.8125 
Q 32.671875 45.40625 29.15625 45.40625 
Q 23.53125 45.40625 19.453125 41.84375 
Q 15.375 38.28125 15.375 28.328125 
L 15.375 0 
z
" id="ArialMT-110"/>
      <path id="ArialMT-32"/>
      <path d="M 4.984375 -4.296875 
L 13.53125 -5.5625 
Q 14.0625 -9.515625 16.5 -11.328125 
Q 19.78125 -13.765625 25.4375 -13.765625 
Q 31.546875 -13.765625 34.859375 -11.328125 
Q 38.1875 -8.890625 39.359375 -4.5 
Q 40.046875 -1.8125 39.984375 6.78125 
Q 34.234375 0 25.640625 0 
Q 14.9375 0 9.078125 7.71875 
Q 3.21875 15.4375 3.21875 26.21875 
Q 3.21875 33.640625 5.90625 39.90625 
Q 8.59375 46.1875 13.6875 49.609375 
Q 18.796875 53.03125 25.6875 53.03125 
Q 34.859375 53.03125 40.828125 45.609375 
L 40.828125 51.859375 
L 48.921875 51.859375 
L 48.921875 7.03125 
Q 48.921875 -5.078125 46.453125 -10.125 
Q 44 -15.1875 38.640625 -18.109375 
Q 33.296875 -21.046875 25.484375 -21.046875 
Q 16.21875 -21.046875 10.5 -16.875 
Q 4.78125 -12.703125 4.984375 -4.296875 
z
M 12.25 26.859375 
Q 12.25 16.65625 16.296875 11.96875 
Q 20.359375 7.28125 26.46875 7.28125 
Q 32.515625 7.28125 36.609375 11.9375 
Q 40.71875 16.609375 40.71875 26.5625 
Q 40.71875 36.078125 36.5 40.90625 
Q 32.28125 45.75 26.3125 45.75 
Q 20.453125 45.75 16.34375 40.984375 
Q 12.25 36.234375 12.25 26.859375 
z
" id="ArialMT-103"/>
      <path d="M 6.59375 0 
L 6.59375 71.578125 
L 15.375 71.578125 
L 15.375 45.90625 
Q 21.53125 53.03125 30.90625 53.03125 
Q 36.671875 53.03125 40.921875 50.75 
Q 45.171875 48.484375 47 44.484375 
Q 48.828125 40.484375 48.828125 32.859375 
L 48.828125 0 
L 40.046875 0 
L 40.046875 32.859375 
Q 40.046875 39.453125 37.1875 42.453125 
Q 34.328125 45.453125 29.109375 45.453125 
Q 25.203125 45.453125 21.75 43.421875 
Q 18.3125 41.40625 16.84375 37.9375 
Q 15.375 34.46875 15.375 28.375 
L 15.375 0 
z
" id="ArialMT-104"/>
      <path d="M 23.390625 -21.046875 
Q 16.109375 -11.859375 11.078125 0.4375 
Q 6.0625 12.75 6.0625 25.921875 
Q 6.0625 37.546875 9.8125 48.1875 
Q 14.203125 60.546875 23.390625 72.796875 
L 29.6875 72.796875 
Q 23.78125 62.640625 21.875 58.296875 
Q 18.890625 51.5625 17.1875 44.234375 
Q 15.09375 35.109375 15.09375 25.875 
Q 15.09375 2.390625 29.6875 -21.046875 
z
" id="ArialMT-40"/>
      <path d="M 14.703125 0 
L 6.546875 0 
L 6.546875 71.578125 
L 15.328125 71.578125 
L 15.328125 46.046875 
Q 20.90625 53.03125 29.546875 53.03125 
Q 34.328125 53.03125 38.59375 51.09375 
Q 42.875 49.171875 45.625 45.671875 
Q 48.390625 42.1875 49.953125 37.25 
Q 51.515625 32.328125 51.515625 26.703125 
Q 51.515625 13.375 44.921875 6.09375 
Q 38.328125 -1.171875 29.109375 -1.171875 
Q 19.921875 -1.171875 14.703125 6.5 
z
M 14.59375 26.3125 
Q 14.59375 17 17.140625 12.84375 
Q 21.296875 6.0625 28.375 6.0625 
Q 34.125 6.0625 38.328125 11.0625 
Q 42.53125 16.0625 42.53125 25.984375 
Q 42.53125 36.140625 38.5 40.96875 
Q 34.46875 45.796875 28.765625 45.796875 
Q 23 45.796875 18.796875 40.796875 
Q 14.59375 35.796875 14.59375 26.3125 
z
" id="ArialMT-98"/>
      <path d="M 6.59375 -19.875 
L 6.59375 51.859375 
L 14.59375 51.859375 
L 14.59375 45.125 
Q 17.4375 49.078125 21 51.046875 
Q 24.5625 53.03125 29.640625 53.03125 
Q 36.28125 53.03125 41.359375 49.609375 
Q 46.4375 46.1875 49.015625 39.953125 
Q 51.609375 33.734375 51.609375 26.3125 
Q 51.609375 18.359375 48.75 11.984375 
Q 45.90625 5.609375 40.453125 2.21875 
Q 35.015625 -1.171875 29 -1.171875 
Q 24.609375 -1.171875 21.109375 0.6875 
Q 17.625 2.546875 15.375 5.375 
L 15.375 -19.875 
z
M 14.546875 25.640625 
Q 14.546875 15.625 18.59375 10.84375 
Q 22.65625 6.0625 28.421875 6.0625 
Q 34.28125 6.0625 38.453125 11.015625 
Q 42.625 15.96875 42.625 26.375 
Q 42.625 36.28125 38.546875 41.203125 
Q 34.46875 46.140625 28.8125 46.140625 
Q 23.1875 46.140625 18.859375 40.890625 
Q 14.546875 35.640625 14.546875 25.640625 
z
" id="ArialMT-112"/>
      <path d="M 12.359375 -21.046875 
L 6.0625 -21.046875 
Q 20.65625 2.390625 20.65625 25.875 
Q 20.65625 35.0625 18.5625 44.09375 
Q 16.890625 51.421875 13.921875 58.15625 
Q 12.015625 62.546875 6.0625 72.796875 
L 12.359375 72.796875 
Q 21.53125 60.546875 25.921875 48.1875 
Q 29.6875 37.546875 29.6875 25.921875 
Q 29.6875 12.75 24.625 0.4375 
Q 19.578125 -11.859375 12.359375 -21.046875 
z
" id="ArialMT-41"/>
     </defs>
     <g style="fill:#262626;" transform="translate(62.621562 241.195469)rotate(-90)scale(0.18 -0.18)">
      <use xlink:href="#ArialMT-68"/>
      <use x="72.216797" xlink:href="#ArialMT-101"/>
      <use x="127.832031" xlink:href="#ArialMT-108"/>
      <use x="150.048828" xlink:href="#ArialMT-101"/>
      <use x="205.664062" xlink:href="#ArialMT-116"/>
      <use x="233.447266" xlink:href="#ArialMT-105"/>
      <use x="255.664062" xlink:href="#ArialMT-111"/>
      <use x="311.279297" xlink:href="#ArialMT-110"/>
      <use x="366.894531" xlink:href="#ArialMT-32"/>
      <use x="394.677734" xlink:href="#ArialMT-76"/>
      <use x="450.292969" xlink:href="#ArialMT-101"/>
      <use x="505.908203" xlink:href="#ArialMT-110"/>
      <use x="561.523438" xlink:href="#ArialMT-103"/>
      <use x="617.138672" xlink:href="#ArialMT-116"/>
      <use x="644.921875" xlink:href="#ArialMT-104"/>
      <use x="700.537109" xlink:href="#ArialMT-32"/>
      <use x="728.320312" xlink:href="#ArialMT-40"/>
      <use x="761.621094" xlink:href="#ArialMT-98"/>
      <use x="817.236328" xlink:href="#ArialMT-112"/>
      <use x="872.851562" xlink:href="#ArialMT-41"/>
     </g>
    </g>
   </g>
   <g id="PathCollection_1">
    <defs>
     <path d="M -0 6.363961 
L 3.818377 0 
L 0 -6.363961 
L -3.818377 -0 
z
" id="me18c6fd519" style="stroke:#f0f0f0;stroke-width:1.5;"/>
    </defs>
    <g clip-path="url(#p0fcffd4745)">
     <use style="fill:#f0f0f0;stroke:#f0f0f0;stroke-width:1.5;" x="145.296786" xlink:href="#me18c6fd519" y="277.391607"/>
     <use style="fill:#f0f0f0;stroke:#f0f0f0;stroke-width:1.5;" x="145.296786" xlink:href="#me18c6fd519" y="40.991363"/>
    </g>
   </g>
   <g id="PatchCollection_1">
    <path clip-path="url(#p0fcffd4745)" d="M 145.239783 275.363269 
L 145.353789 275.363269 
L 145.353789 46.209218 
L 145.239783 46.209218 
z
" style="fill:#ffffff;stroke:#ffffff;stroke-width:1.5;"/>
    <path clip-path="url(#p0fcffd4745)" d="M 145.18278 273.490531 
L 145.410791 273.490531 
L 145.410791 52.853312 
L 145.18278 52.853312 
z
" style="fill:#fdfdfd;stroke:#ffffff;stroke-width:1.5;"/>
    <path clip-path="url(#p0fcffd4745)" d="M 145.068775 270.31727 
L 145.524797 270.31727 
L 145.524797 74.659364 
L 145.068775 74.659364 
z
" style="fill:#fcfcfc;stroke:#ffffff;stroke-width:1.5;"/>
    <path clip-path="url(#p0fcffd4745)" d="M 144.840763 268.99216 
L 145.752808 268.99216 
L 145.752808 107.434921 
L 144.840763 107.434921 
z
" style="fill:#fafafa;stroke:#ffffff;stroke-width:1.5;"/>
    <path clip-path="url(#p0fcffd4745)" d="M 144.384741 265.129275 
L 146.20883 265.129275 
L 146.20883 117.123858 
L 144.384741 117.123858 
z
" style="fill:#f8f8f8;stroke:#ffffff;stroke-width:1.5;"/>
    <path clip-path="url(#p0fcffd4745)" d="M 143.472696 252.061937 
L 147.120875 252.061937 
L 147.120875 122.548757 
L 143.472696 122.548757 
z
" style="fill:#f7f7f7;stroke:#ffffff;stroke-width:1.5;"/>
    <path clip-path="url(#p0fcffd4745)" d="M 141.648607 243.8384 
L 148.944964 243.8384 
L 148.944964 126.669009 
L 141.648607 126.669009 
z
" style="fill:#f5f5f5;stroke:#ffffff;stroke-width:1.5;"/>
    <path clip-path="url(#p0fcffd4745)" d="M 138.000429 235.458599 
L 152.593143 235.458599 
L 152.593143 128.984473 
L 138.000429 128.984473 
z
" style="fill:#f3f3f3;stroke:#ffffff;stroke-width:1.5;"/>
    <path clip-path="url(#p0fcffd4745)" d="M 130.704071 225.898729 
L 159.8895 225.898729 
L 159.8895 140.397325 
L 130.704071 140.397325 
z
" style="fill:#f2f2f2;stroke:#ffffff;stroke-width:1.5;"/>
    <path clip-path="url(#p0fcffd4745)" d="M 116.111357 216.562073 
L 174.482214 216.562073 
L 174.482214 168.143266 
L 116.111357 168.143266 
z
" style="fill:#f0f0f0;stroke:#ffffff;stroke-width:1.5;"/>
   </g>
   <g id="PathCollection_2">
    <defs>
     <path d="M -0 6.363961 
L 3.818377 0 
L 0 -6.363961 
L -3.818377 -0 
z
" id="m2daf755de6" style="stroke:#d9d9d9;stroke-width:1.5;"/>
    </defs>
    <g clip-path="url(#p0fcffd4745)">
     <use style="fill:#d9d9d9;stroke:#d9d9d9;stroke-width:1.5;" x="218.260357" xlink:href="#m2daf755de6" y="280.886866"/>
     <use style="fill:#d9d9d9;stroke:#d9d9d9;stroke-width:1.5;" x="218.260357" xlink:href="#m2daf755de6" y="96.884322"/>
    </g>
   </g>
   <g id="PatchCollection_2">
    <path clip-path="url(#p0fcffd4745)" d="M 218.146352 275.154885 
L 218.374363 275.154885 
L 218.374363 102.26726 
L 218.146352 102.26726 
z
" style="fill:#ffffff;stroke:#ffffff;stroke-width:1.5;"/>
    <path clip-path="url(#p0fcffd4745)" d="M 218.032346 270.515665 
L 218.488368 270.515665 
L 218.488368 109.182056 
L 218.032346 109.182056 
z
" style="fill:#fafafa;stroke:#ffffff;stroke-width:1.5;"/>
    <path clip-path="url(#p0fcffd4745)" d="M 217.804335 266.055235 
L 218.716379 266.055235 
L 218.716379 112.591399 
L 217.804335 112.591399 
z
" style="fill:#f5f5f5;stroke:#ffffff;stroke-width:1.5;"/>
    <path clip-path="url(#p0fcffd4745)" d="M 217.348312 251.949452 
L 219.172402 251.949452 
L 219.172402 117.830095 
L 217.348312 117.830095 
z
" style="fill:#f1f1f1;stroke:#ffffff;stroke-width:1.5;"/>
    <path clip-path="url(#p0fcffd4745)" d="M 216.436268 250.021 
L 220.084446 250.021 
L 220.084446 125.284957 
L 216.436268 125.284957 
z
" style="fill:#ececec;stroke:#ffffff;stroke-width:1.5;"/>
    <path clip-path="url(#p0fcffd4745)" d="M 214.612179 243.240307 
L 221.908536 243.240307 
L 221.908536 126.875306 
L 214.612179 126.875306 
z
" style="fill:#e7e7e7;stroke:#ffffff;stroke-width:1.5;"/>
    <path clip-path="url(#p0fcffd4745)" d="M 210.964 235.023718 
L 225.556714 235.023718 
L 225.556714 129.304536 
L 210.964 129.304536 
z
" style="fill:#e2e2e2;stroke:#ffffff;stroke-width:1.5;"/>
    <path clip-path="url(#p0fcffd4745)" d="M 203.667643 225.628292 
L 232.853071 225.628292 
L 232.853071 142.815739 
L 203.667643 142.815739 
z
" style="fill:#dedede;stroke:#ffffff;stroke-width:1.5;"/>
    <path clip-path="url(#p0fcffd4745)" d="M 189.074929 216.094272 
L 247.445786 216.094272 
L 247.445786 170.749781 
L 189.074929 170.749781 
z
" style="fill:#d9d9d9;stroke:#ffffff;stroke-width:1.5;"/>
   </g>
   <g id="PathCollection_3">
    <defs>
     <path d="M -0 6.363961 
L 3.818377 0 
L 0 -6.363961 
L -3.818377 -0 
z
" id="mb3e080016e" style="stroke:#bdbdbd;stroke-width:1.5;"/>
    </defs>
    <g clip-path="url(#p0fcffd4745)">
     <use style="fill:#bdbdbd;stroke:#bdbdbd;stroke-width:1.5;" x="291.223929" xlink:href="#mb3e080016e" y="277.391607"/>
     <use style="fill:#bdbdbd;stroke:#bdbdbd;stroke-width:1.5;" x="291.223929" xlink:href="#mb3e080016e" y="40.991363"/>
    </g>
   </g>
   <g id="PatchCollection_3">
    <path clip-path="url(#p0fcffd4745)" d="M 291.166926 276.962863 
L 291.280931 276.962863 
L 291.280931 46.340784 
L 291.166926 46.340784 
z
" style="fill:#ffffff;stroke:#ffffff;stroke-width:1.5;"/>
    <path clip-path="url(#p0fcffd4745)" d="M 291.109923 276.541516 
L 291.337934 276.541516 
L 291.337934 53.200226 
L 291.109923 53.200226 
z
" style="fill:#f8f8f8;stroke:#ffffff;stroke-width:1.5;"/>
    <path clip-path="url(#p0fcffd4745)" d="M 290.995917 275.156337 
L 291.45194 275.156337 
L 291.45194 75.10234 
L 290.995917 75.10234 
z
" style="fill:#f1f1f1;stroke:#ffffff;stroke-width:1.5;"/>
    <path clip-path="url(#p0fcffd4745)" d="M 290.767906 266.818837 
L 291.679951 266.818837 
L 291.679951 107.534398 
L 290.767906 107.534398 
z
" style="fill:#e9e9e9;stroke:#ffffff;stroke-width:1.5;"/>
    <path clip-path="url(#p0fcffd4745)" d="M 290.311884 255.504524 
L 292.135973 255.504524 
L 292.135973 117.208383 
L 290.311884 117.208383 
z
" style="fill:#e2e2e2;stroke:#ffffff;stroke-width:1.5;"/>
    <path clip-path="url(#p0fcffd4745)" d="M 289.399839 251.106741 
L 293.048018 251.106741 
L 293.048018 122.788684 
L 289.399839 122.788684 
z
" style="fill:#dadada;stroke:#ffffff;stroke-width:1.5;"/>
    <path clip-path="url(#p0fcffd4745)" d="M 287.57575 244.359211 
L 294.872107 244.359211 
L 294.872107 126.704762 
L 287.57575 126.704762 
z
" style="fill:#d3d3d3;stroke:#ffffff;stroke-width:1.5;"/>
    <path clip-path="url(#p0fcffd4745)" d="M 283.927571 235.023718 
L 298.520286 235.023718 
L 298.520286 129.146805 
L 283.927571 129.146805 
z
" style="fill:#cbcbcb;stroke:#ffffff;stroke-width:1.5;"/>
    <path clip-path="url(#p0fcffd4745)" d="M 276.631214 226.398239 
L 305.816643 226.398239 
L 305.816643 139.431778 
L 276.631214 139.431778 
z
" style="fill:#c4c4c4;stroke:#ffffff;stroke-width:1.5;"/>
    <path clip-path="url(#p0fcffd4745)" d="M 262.0385 216.427499 
L 320.409357 216.427499 
L 320.409357 169.578764 
L 262.0385 169.578764 
z
" style="fill:#bdbdbd;stroke:#ffffff;stroke-width:1.5;"/>
   </g>
   <g id="PathCollection_4">
    <defs>
     <path d="M -0 6.363961 
L 3.818377 0 
L 0 -6.363961 
L -3.818377 -0 
z
" id="m88bd9e0530" style="stroke:#959595;stroke-width:1.5;"/>
    </defs>
    <g clip-path="url(#p0fcffd4745)">
     <use style="fill:#959595;stroke:#959595;stroke-width:1.5;" x="364.1875" xlink:href="#m88bd9e0530" y="265.911698"/>
     <use style="fill:#959595;stroke:#959595;stroke-width:1.5;" x="364.1875" xlink:href="#m88bd9e0530" y="96.884322"/>
    </g>
   </g>
   <g id="PatchCollection_4">
    <path clip-path="url(#p0fcffd4745)" d="M 364.073494 259.774631 
L 364.301506 259.774631 
L 364.301506 99.975074 
L 364.073494 99.975074 
z
" style="fill:#ffffff;stroke:#ffffff;stroke-width:1.5;"/>
    <path clip-path="url(#p0fcffd4745)" d="M 363.959489 256.008153 
L 364.415511 256.008153 
L 364.415511 103.417182 
L 363.959489 103.417182 
z
" style="fill:#f2f2f2;stroke:#ffffff;stroke-width:1.5;"/>
    <path clip-path="url(#p0fcffd4745)" d="M 363.731478 255.815443 
L 364.643522 255.815443 
L 364.643522 109.241106 
L 363.731478 109.241106 
z
" style="fill:#e4e4e4;stroke:#ffffff;stroke-width:1.5;"/>
    <path clip-path="url(#p0fcffd4745)" d="M 363.275455 253.0044 
L 365.099545 253.0044 
L 365.099545 114.868173 
L 363.275455 114.868173 
z
" style="fill:#d7d7d7;stroke:#ffffff;stroke-width:1.5;"/>
    <path clip-path="url(#p0fcffd4745)" d="M 362.363411 250.021 
L 366.011589 250.021 
L 366.011589 123.755874 
L 362.363411 123.755874 
z
" style="fill:#cacaca;stroke:#ffffff;stroke-width:1.5;"/>
    <path clip-path="url(#p0fcffd4745)" d="M 360.539321 242.291039 
L 367.835679 242.291039 
L 367.835679 126.790099 
L 360.539321 126.790099 
z
" style="fill:#bcbcbc;stroke:#ffffff;stroke-width:1.5;"/>
    <path clip-path="url(#p0fcffd4745)" d="M 356.891143 235.531838 
L 371.483857 235.531838 
L 371.483857 129.312355 
L 356.891143 129.312355 
z
" style="fill:#afafaf;stroke:#ffffff;stroke-width:1.5;"/>
    <path clip-path="url(#p0fcffd4745)" d="M 349.594786 226.398239 
L 378.780214 226.398239 
L 378.780214 144.779033 
L 349.594786 144.779033 
z
" style="fill:#a2a2a2;stroke:#ffffff;stroke-width:1.5;"/>
    <path clip-path="url(#p0fcffd4745)" d="M 335.002071 216.028169 
L 393.372929 216.028169 
L 393.372929 175.969807 
L 335.002071 175.969807 
z
" style="fill:#959595;stroke:#ffffff;stroke-width:1.5;"/>
   </g>
   <g id="PathCollection_5">
    <defs>
     <path d="M -0 6.363961 
L 3.818377 0 
L 0 -6.363961 
L -3.818377 -0 
z
" id="m6fa12f460d" style="stroke:#727272;stroke-width:1.5;"/>
    </defs>
    <g clip-path="url(#p0fcffd4745)">
     <use style="fill:#727272;stroke:#727272;stroke-width:1.5;" x="437.151071" xlink:href="#m6fa12f460d" y="265.911698"/>
     <use style="fill:#727272;stroke:#727272;stroke-width:1.5;" x="437.151071" xlink:href="#m6fa12f460d" y="40.991363"/>
    </g>
   </g>
   <g id="PatchCollection_5">
    <path clip-path="url(#p0fcffd4745)" d="M 437.094069 262.897402 
L 437.208074 262.897402 
L 437.208074 47.150753 
L 437.094069 47.150753 
z
" style="fill:#ffffff;stroke:#ffffff;stroke-width:1.5;"/>
    <path clip-path="url(#p0fcffd4745)" d="M 437.037066 260.214567 
L 437.265077 260.214567 
L 437.265077 55.406979 
L 437.037066 55.406979 
z
" style="fill:#f0f0f0;stroke:#ffffff;stroke-width:1.5;"/>
    <path clip-path="url(#p0fcffd4745)" d="M 436.92306 255.905009 
L 437.379083 255.905009 
L 437.379083 87.49533 
L 436.92306 87.49533 
z
" style="fill:#e0e0e0;stroke:#ffffff;stroke-width:1.5;"/>
    <path clip-path="url(#p0fcffd4745)" d="M 436.695049 253.863018 
L 437.607094 253.863018 
L 437.607094 97.405977 
L 436.695049 97.405977 
z
" style="fill:#d0d0d0;stroke:#ffffff;stroke-width:1.5;"/>
    <path clip-path="url(#p0fcffd4745)" d="M 436.239027 251.668264 
L 438.063116 251.668264 
L 438.063116 107.640452 
L 436.239027 107.640452 
z
" style="fill:#c1c1c1;stroke:#ffffff;stroke-width:1.5;"/>
    <path clip-path="url(#p0fcffd4745)" d="M 435.326982 250.021 
L 438.975161 250.021 
L 438.975161 118.123717 
L 435.326982 118.123717 
z
" style="fill:#b0b0b0;stroke:#ffffff;stroke-width:1.5;"/>
    <path clip-path="url(#p0fcffd4745)" d="M 433.502893 241.482343 
L 440.79925 241.482343 
L 440.79925 125.883662 
L 433.502893 125.883662 
z
" style="fill:#a1a1a1;stroke:#ffffff;stroke-width:1.5;"/>
    <path clip-path="url(#p0fcffd4745)" d="M 429.854714 234.385579 
L 444.447429 234.385579 
L 444.447429 128.955032 
L 429.854714 128.955032 
z
" style="fill:#919191;stroke:#ffffff;stroke-width:1.5;"/>
    <path clip-path="url(#p0fcffd4745)" d="M 422.558357 225.409231 
L 451.743786 225.409231 
L 451.743786 135.680153 
L 422.558357 135.680153 
z
" style="fill:#818181;stroke:#ffffff;stroke-width:1.5;"/>
    <path clip-path="url(#p0fcffd4745)" d="M 407.965643 215.505686 
L 466.3365 215.505686 
L 466.3365 169.697333 
L 407.965643 169.697333 
z
" style="fill:#727272;stroke:#ffffff;stroke-width:1.5;"/>
   </g>
   <g id="PathCollection_6">
    <defs>
     <path d="M -0 6.363961 
L 3.818377 0 
L 0 -6.363961 
L -3.818377 -0 
z
" id="m7788ea2706" style="stroke:#515151;stroke-width:1.5;"/>
    </defs>
    <g clip-path="url(#p0fcffd4745)">
     <use style="fill:#515151;stroke:#515151;stroke-width:1.5;" x="510.114643" xlink:href="#m7788ea2706" y="275.815244"/>
     <use style="fill:#515151;stroke:#515151;stroke-width:1.5;" x="510.114643" xlink:href="#m7788ea2706" y="96.884322"/>
    </g>
   </g>
   <g id="PatchCollection_6">
    <path clip-path="url(#p0fcffd4745)" d="M 510.000637 270.174849 
L 510.228648 270.174849 
L 510.228648 103.40854 
L 510.000637 103.40854 
z
" style="fill:#ffffff;stroke:#ffffff;stroke-width:1.5;"/>
    <path clip-path="url(#p0fcffd4745)" d="M 509.886632 266.752912 
L 510.342654 266.752912 
L 510.342654 109.210033 
L 509.886632 109.210033 
z
" style="fill:#e9e9e9;stroke:#ffffff;stroke-width:1.5;"/>
    <path clip-path="url(#p0fcffd4745)" d="M 509.658621 264.074355 
L 510.570665 264.074355 
L 510.570665 110.498837 
L 509.658621 110.498837 
z
" style="fill:#d3d3d3;stroke:#ffffff;stroke-width:1.5;"/>
    <path clip-path="url(#p0fcffd4745)" d="M 509.202598 255.504524 
L 511.026687 255.504524 
L 511.026687 117.66419 
L 509.202598 117.66419 
z
" style="fill:#bdbdbd;stroke:#ffffff;stroke-width:1.5;"/>
    <path clip-path="url(#p0fcffd4745)" d="M 508.290554 251.106741 
L 511.938732 251.106741 
L 511.938732 125.846006 
L 508.290554 125.846006 
z
" style="fill:#a8a8a8;stroke:#ffffff;stroke-width:1.5;"/>
    <path clip-path="url(#p0fcffd4745)" d="M 506.466464 243.941677 
L 513.762821 243.941677 
L 513.762821 126.879167 
L 506.466464 126.879167 
z
" style="fill:#929292;stroke:#ffffff;stroke-width:1.5;"/>
    <path clip-path="url(#p0fcffd4745)" d="M 502.818286 236.201062 
L 517.411 236.201062 
L 517.411 129.457571 
L 502.818286 129.457571 
z
" style="fill:#7c7c7c;stroke:#ffffff;stroke-width:1.5;"/>
    <path clip-path="url(#p0fcffd4745)" d="M 495.521929 225.997817 
L 524.707357 225.997817 
L 524.707357 144.729091 
L 495.521929 144.729091 
z
" style="fill:#666666;stroke:#ffffff;stroke-width:1.5;"/>
    <path clip-path="url(#p0fcffd4745)" d="M 480.929214 215.76553 
L 539.300071 215.76553 
L 539.300071 175.989022 
L 480.929214 175.989022 
z
" style="fill:#515151;stroke:#ffffff;stroke-width:1.5;"/>
   </g>
   <g id="PathCollection_7">
    <defs>
     <path d="M -0 6.363961 
L 3.818377 0 
L 0 -6.363961 
L -3.818377 -0 
z
" id="m8f9558d647" style="stroke:#242424;stroke-width:1.5;"/>
    </defs>
    <g clip-path="url(#p0fcffd4745)">
     <use style="fill:#242424;stroke:#242424;stroke-width:1.5;" x="583.078214" xlink:href="#m8f9558d647" y="280.886866"/>
     <use style="fill:#242424;stroke:#242424;stroke-width:1.5;" x="583.078214" xlink:href="#m8f9558d647" y="96.884322"/>
    </g>
   </g>
   <g id="PatchCollection_7">
    <path clip-path="url(#p0fcffd4745)" d="M 582.964209 273.339191 
L 583.19222 273.339191 
L 583.19222 99.401742 
L 582.964209 99.401742 
z
" style="fill:#ffffff;stroke:#ffffff;stroke-width:1.5;"/>
    <path clip-path="url(#p0fcffd4745)" d="M 582.850203 267.58153 
L 583.306225 267.58153 
L 583.306225 102.208757 
L 582.850203 102.208757 
z
" style="fill:#e4e4e4;stroke:#ffffff;stroke-width:1.5;"/>
    <path clip-path="url(#p0fcffd4745)" d="M 582.622192 266.031254 
L 583.534237 266.031254 
L 583.534237 108.282877 
L 582.622192 108.282877 
z
" style="fill:#c8c8c8;stroke:#ffffff;stroke-width:1.5;"/>
    <path clip-path="url(#p0fcffd4745)" d="M 582.16617 253.07481 
L 583.990259 253.07481 
L 583.990259 115.004072 
L 582.16617 115.004072 
z
" style="fill:#adadad;stroke:#ffffff;stroke-width:1.5;"/>
    <path clip-path="url(#p0fcffd4745)" d="M 581.254125 250.021 
L 584.902304 250.021 
L 584.902304 123.978477 
L 581.254125 123.978477 
z
" style="fill:#919191;stroke:#ffffff;stroke-width:1.5;"/>
    <path clip-path="url(#p0fcffd4745)" d="M 579.430036 243.480328 
L 586.726393 243.480328 
L 586.726393 126.794801 
L 579.430036 126.794801 
z
" style="fill:#767676;stroke:#ffffff;stroke-width:1.5;"/>
    <path clip-path="url(#p0fcffd4745)" d="M 575.781857 235.023718 
L 590.374571 235.023718 
L 590.374571 128.839943 
L 575.781857 128.839943 
z
" style="fill:#5a5a5a;stroke:#ffffff;stroke-width:1.5;"/>
    <path clip-path="url(#p0fcffd4745)" d="M 568.4855 226.398239 
L 597.670929 226.398239 
L 597.670929 134.025109 
L 568.4855 134.025109 
z
" style="fill:#3f3f3f;stroke:#ffffff;stroke-width:1.5;"/>
    <path clip-path="url(#p0fcffd4745)" d="M 553.892786 216.028169 
L 612.263643 216.028169 
L 612.263643 168.650381 
L 553.892786 168.650381 
z
" style="fill:#242424;stroke:#ffffff;stroke-width:1.5;"/>
   </g>
   <g id="line2d_1">
    <path clip-path="url(#p0fcffd4745)" d="M 116.111357 198.966273 
L 174.482214 198.966273 
" style="fill:none;stroke:#262626;stroke-linecap:round;stroke-opacity:0.45;stroke-width:2.25;"/>
   </g>
   <g id="line2d_2">
    <path clip-path="url(#p0fcffd4745)" d="M 189.074929 197.316155 
L 247.445786 197.316155 
" style="fill:none;stroke:#262626;stroke-linecap:round;stroke-opacity:0.45;stroke-width:2.25;"/>
   </g>
   <g id="line2d_3">
    <path clip-path="url(#p0fcffd4745)" d="M 262.0385 198.835307 
L 320.409357 198.835307 
" style="fill:none;stroke:#262626;stroke-linecap:round;stroke-opacity:0.45;stroke-width:2.25;"/>
   </g>
   <g id="line2d_4">
    <path clip-path="url(#p0fcffd4745)" d="M 335.002071 201.525133 
L 393.372929 201.525133 
" style="fill:none;stroke:#262626;stroke-linecap:round;stroke-opacity:0.45;stroke-width:2.25;"/>
   </g>
   <g id="line2d_5">
    <path clip-path="url(#p0fcffd4745)" d="M 407.965643 197.316155 
L 466.3365 197.316155 
" style="fill:none;stroke:#262626;stroke-linecap:round;stroke-opacity:0.45;stroke-width:2.25;"/>
   </g>
   <g id="line2d_6">
    <path clip-path="url(#p0fcffd4745)" d="M 480.929214 200.525134 
L 539.300071 200.525134 
" style="fill:none;stroke:#262626;stroke-linecap:round;stroke-opacity:0.45;stroke-width:2.25;"/>
   </g>
   <g id="line2d_7">
    <path clip-path="url(#p0fcffd4745)" d="M 553.892786 197.132737 
L 612.263643 197.132737 
" style="fill:none;stroke:#262626;stroke-linecap:round;stroke-opacity:0.45;stroke-width:2.25;"/>
   </g>
   <g id="patch_3">
    <path d="M 108.815 290.856875 
L 108.815 28.44 
" style="fill:none;stroke:#262626;stroke-linecap:square;stroke-linejoin:miter;stroke-width:1.875;"/>
   </g>
   <g id="patch_4">
    <path d="M 108.815 290.856875 
L 619.56 290.856875 
" style="fill:none;stroke:#262626;stroke-linecap:square;stroke-linejoin:miter;stroke-width:1.875;"/>
   </g>
  </g>
 </g>
 <defs>
  <clipPath id="p0fcffd4745">
   <rect height="262.416875" width="510.745" x="108.815" y="28.44"/>
  </clipPath>
 </defs>
</svg>
